<svg xmlns="http://www.w3.org/2000/svg" xmlns:xlink="http://www.w3.org/1999/xlink" width="1360" height="781" viewBox="-50 -50 1360 781"><title>WaveForm</title><style type="text/css">
path, polyline, polygon {stroke-linejoin:round;}
path, polyline, polygon, line {stroke-linecap:round;}
</style>
<rect x="-50" y="-50" width="1360" height="781" fill="#FFFFFF" stroke="none"/><g><rect x="0" y="0" width="1260" height="681" stroke="#000000" stroke-width="1" fill="#000000"/><g><text x="20" y="30" stroke="none" text-anchor="start" fill="#0085CC" font-size="12pt">V(v_out)</text></g><rect x="70" y="50" width="1120" height="155.33333333333334" stroke="#EFEFEF" stroke-width="1" fill="#333333"/><g><text x="70" y="222.33333333333334" stroke="none" text-anchor="middle" fill="#EFEFEF" font-size="12pt">-200ms</text></g><polyline points="163.33333333333331 50 163.33333333333331 205.33333333333334" stroke="#EFEFEF" stroke-width="1" stroke-dasharray="2,8" fill="none"/><g><text x="163.33333333333331" y="222.33333333333334" stroke="none" text-anchor="middle" fill="#EFEFEF" font-size="12pt">0s</text></g><polyline points="256.66666666666663 50 256.66666666666663 205.33333333333334" stroke="#EFEFEF" stroke-width="1" stroke-dasharray="2,8" fill="none"/><g><text x="256.66666666666663" y="222.33333333333334" stroke="none" text-anchor="middle" fill="#EFEFEF" font-size="12pt">200ms</text></g><polyline points="350 50 350 205.33333333333334" stroke="#EFEFEF" stroke-width="1" stroke-dasharray="2,8" fill="none"/><g><text x="350" y="222.33333333333334" stroke="none" text-anchor="middle" fill="#EFEFEF" font-size="12pt">400ms</text></g><polyline points="443.3333333333333 50 443.3333333333333 205.33333333333334" stroke="#EFEFEF" stroke-width="1" stroke-dasharray="2,8" fill="none"/><g><text x="443.3333333333333" y="222.33333333333334" stroke="none" text-anchor="middle" fill="#EFEFEF" font-size="12pt">600ms</text></g><polyline points="536.6666666666666 50 536.6666666666666 205.33333333333334" stroke="#EFEFEF" stroke-width="1" stroke-dasharray="2,8" fill="none"/><g><text x="536.6666666666666" y="222.33333333333334" stroke="none" text-anchor="middle" fill="#EFEFEF" font-size="12pt">800ms</text></g><polyline points="630 50 630 205.33333333333334" stroke="#EFEFEF" stroke-width="1" stroke-dasharray="2,8" fill="none"/><g><text x="630" y="222.33333333333334" stroke="none" text-anchor="middle" fill="#EFEFEF" font-size="12pt">1s</text></g><polyline points="723.3333333333333 50 723.3333333333333 205.33333333333334" stroke="#EFEFEF" stroke-width="1" stroke-dasharray="2,8" fill="none"/><g><text x="723.3333333333333" y="222.33333333333334" stroke="none" text-anchor="middle" fill="#EFEFEF" font-size="12pt">1.2s</text></g><polyline points="816.6666666666666 50 816.6666666666666 205.33333333333334" stroke="#EFEFEF" stroke-width="1" stroke-dasharray="2,8" fill="none"/><g><text x="816.6666666666666" y="222.33333333333334" stroke="none" text-anchor="middle" fill="#EFEFEF" font-size="12pt">1.4s</text></g><polyline points="910 50 910 205.33333333333334" stroke="#EFEFEF" stroke-width="1" stroke-dasharray="2,8" fill="none"/><g><text x="910" y="222.33333333333334" stroke="none" text-anchor="middle" fill="#EFEFEF" font-size="12pt">1.6s</text></g><polyline points="1003.3333333333333 50 1003.3333333333333 205.33333333333334" stroke="#EFEFEF" stroke-width="1" stroke-dasharray="2,8" fill="none"/><g><text x="1003.3333333333333" y="222.33333333333334" stroke="none" text-anchor="middle" fill="#EFEFEF" font-size="12pt">1.8s</text></g><polyline points="1096.6666666666665 50 1096.6666666666665 205.33333333333334" stroke="#EFEFEF" stroke-width="1" stroke-dasharray="2,8" fill="none"/><g><text x="1096.6666666666665" y="222.33333333333334" stroke="none" text-anchor="middle" fill="#EFEFEF" font-size="12pt">2s</text></g><polyline points="1190 50 1190 205.33333333333334" stroke="#EFEFEF" stroke-width="1" stroke-dasharray="2,8" fill="none"/><g><text x="1190" y="222.33333333333334" stroke="none" text-anchor="middle" fill="#EFEFEF" font-size="12pt">2.2s</text></g><g><text x="65" y="50" stroke="none" text-anchor="end" fill="#EFEFEF" font-size="12pt">4.994V</text></g><polyline points="70 127.66666666666667 1190 127.66666666666667" stroke="#EFEFEF" stroke-width="1" stroke-dasharray="2,8" fill="none"/><g><text x="65" y="127.66666666666667" stroke="none" text-anchor="end" fill="#EFEFEF" font-size="12pt">4.994V</text></g><polyline points="70 205.33333333333334 1190 205.33333333333334" stroke="#EFEFEF" stroke-width="1" stroke-dasharray="2,8" fill="none"/><g><text x="65" y="205.33333333333334" stroke="none" text-anchor="end" fill="#EFEFEF" font-size="12pt">4.994V</text></g><polyline points="163.33333333 105.55646564 163.3333338 105.89778784 163.33333427 106.35651716 163.3333352 107.49996033 163.33333707 111.15379104 163.3333408 109.91791219 163.33334827 108.13155816 163.3333632 124.45307813 163.33339307 153.39179264 163.3334528 142.90434378 163.33357227 79.67944163 163.3338112 140.40319981 163.33428907 56.130969 163.3352448 185.83188797 163.33715627 120.956664 163.3409792 91.89778311 163.34862507 159.67962637 163.3639168 71.14238565 163.39450026 129.14894869 163.4556672 110.93980934 163.57800106 119.57895846 163.82266879 115.94513249 164.31200424 102.94136365 165.24533757 117.91387453 166.17867091 108.96513486 167.11200424 115.57690736 168.04533757 111.20014685 168.97867091 124.97375315 169.91200424 106.50386239 170.84533757 127.57381709 171.77867091 109.50498683 172.71200424 112.04503656 173.64533757 106.4148758 174.57867091 129.65279214 175.51200424 106.94382864 176.44533757 126.37560233 177.37867091 109.4644255 178.31200424 120.1265364 179.24533757 107.2248607 180.17867091 116.32674009 181.11200424 93.04577908 182.04533757 126.01179205 182.97867091 99.20047784 183.91200424 123.09496344 184.84533757 95.88038132 185.77867091 131.28959351 186.71200424 104.55415934 187.64533757 124.89870089 188.57867091 107.87163454 189.51200424 132.37495396 190.44533757 106.71853391 191.37867091 126.36346153 192.31200424 110.57144625 193.24533757 115.09775942 194.17867091 100.44877343 195.11200424 118.37218995 196.04533757 99.23579655 196.97867091 116.11510377 197.91200424 109.01990645 198.84533757 115.12273085 199.77867091 92.19992362 200.71200424 130.64778636 201.64533757 102.65840009 202.57867091 120.36148859 203.51200424 115.35078485 204.44533757 137.42539124 205.37867091 91.38014329 206.31200424 125.99302898 207.24533757 108.00352784 208.17867091 124.1084448 209.11200424 108.85641946 210.04533757 122.72121976 210.97867091 107.8535613 211.91200424 128.55142789 212.84533757 100.22623797 213.77867091 133.67940078 214.71200424 100.51389229 215.64533757 128.83356367 216.57867091 106.3700376 217.51200424 124.0958901 218.44533757 112.99050182 219.37867091 119.50790716 220.31200424 100.48367824 221.24533757 124.50288303 222.17867091 98.25349498 223.11200424 117.66043521 224.04533757 121.70994582 224.97867091 112.69815673 225.91200424 116.92163958 226.84533757 123.50402582 227.77867091 108.92816058 228.71200424 109.17939249 229.64533757 107.49113065 230.57867091 118.29327471 231.51200424 106.31733546 232.44533757 128.21079551 233.37867091 107.30032685 234.31200424 130.02860526 235.24533757 102.08488498 236.17867091 129.85463303 237.11200424 97.47496581 238.04533757 121.16471327 238.97867091 111.51953282 239.91200424 111.20773485 240.84533757 112.44306185 241.77867091 133.73913906 242.71200424 107.24445155 243.64533757 122.14549723 244.57867091 110.45693638 245.51200424 119.49300708 246.44533757 113.886852 247.37867091 119.9851236 248.31200424 102.01286793 249.24533757 129.8498043 250.17867091 106.05423868 251.11200424 128.44767919 252.04533757 108.45273766 252.97867091 128.22404003 253.91200424 105.90275454 254.84533757 116.19719217 255.77867091 98.35448441 256.71200424 132.59721349 257.64533757 90.5309767 258.57867091 121.25273411 259.51200424 103.07711993 260.44533757 130.37654972 261.37867091 96.41016194 262.31200424 128.33330728 263.24533757 107.43553128 264.17867091 135.29633538 265.11200424 108.7768144 266.04533757 136.85297984 266.97867091 100.47070965 267.91200424 128.89716493 268.84533757 94.66630074 269.77867091 143.3953566 270.71200424 94.6725091 271.64533757 116.09164994 272.57867091 93.16180655 273.51200424 132.14593422 274.44533757 94.41769014 275.37867091 130.61481304 276.31200424 95.25209462 277.24533757 129.39852503 278.17867091 88.1055748 279.11200424 148.1142671 280.04533757 98.58957456 280.97867091 129.70038961 281.91200424 91.59150369 282.84533757 133.2311567 283.77867091 92.28642686 284.71200424 132.07640051 285.64533757 100.72221749 286.57867091 129.93189271 287.51200424 97.58023211 288.44533757 138.02249815 289.37867091 97.06273026 290.31200424 148.13592741 291.24533757 100.09682802 292.17867091 136.38555881 293.11200424 89.12705806 294.04533757 142.66994345 294.97867091 94.61925511 295.91200424 137.94923942 296.84533757 94.83792758 297.77867091 138.48343488 298.71200424 93.16925659 299.64533757 145.90215709 300.57867091 88.5601652 301.51200424 144.15884774 302.44533757 80.33352755 303.37867091 143.55070373 304.31200424 94.53633893 305.24533757 137.4179412 306.17867091 93.70427984 307.11200424 130.87832371 308.04533757 101.09927229 308.97867091 144.54983687 309.91200424 93.61087841 310.84533757 135.12953726 311.77867091 85.70100542 312.71200424 139.63970868 313.64533757 95.69909702 314.57867091 141.67522515 315.51200424 85.00566835 316.44533757 121.57239601 317.37867091 93.81837582 318.31200424 126.21970335 319.24533757 105.23997691 320.17867091 140.34290967 321.11200424 98.55894662 322.04533757 140.13651597 322.97867091 98.01702519 323.91200424 130.43559819 324.84533757 94.75418362 325.77867091 120.55725908 326.71200424 99.47778488 327.64533757 127.77303668 328.57867091 98.93586346 329.51200424 136.87726145 330.44533757 94.80081535 331.37867091 143.45178376 332.31200424 92.53186429 333.24533757 140.9996169 334.17867091 96.13078545 335.11200424 145.23399887 336.04533757 92.99238713 336.97867091 144.31916156 337.91200424 91.20506735 338.84533757 138.53061847 339.77867091 85.87525357 340.71200424 130.87032182 341.64533757 90.92734642 342.57867091 141.84740385 343.51200424 99.02278059 344.44533757 145.92961187 345.37867091 95.4019232 346.31200424 140.01538384 347.24533757 97.86554105 348.17867091 139.65791989 349.11200424 91.3097818 350.04533757 128.03889274 350.97867091 95.0902632 351.91200424 139.19932854 352.84533757 83.75309589 353.77867091 132.50781301 354.71200424 96.96960476 355.64533757 142.70001954 356.57867091 89.63172928 357.51200424 135.38835717 358.44533757 89.81204784 359.37867091 142.08483939 360.31200424 92.57352932 361.24533757 139.53223495 362.17867091 93.71628268 363.11200424 146.24941173 364.04533757 89.68263789 364.97867091 142.42602363 365.91200424 103.95470705 366.84533757 145.18860882 367.77867091 97.27036563 368.71200424 127.78407378 369.64533757 93.90363739 370.57867091 130.31570773 371.51200424 82.10263611 372.44533757 126.92028303 373.37867091 93.47553602 374.31200424 133.08422536 375.24533757 95.53091926 376.17867091 138.85386742 377.11200424 94.20674364 378.04533757 125.36639784 378.97867091 93.01639281 379.91200424 137.66448234 380.84533757 96.37677473 381.77867091 128.60771709 382.71200424 105.9169648 383.64533757 143.19586109 384.57867091 106.05051366 385.51200424 132.66109068 386.44533757 104.31437842 387.37867091 121.73298576 388.31200424 108.25186251 389.24533757 141.46952127 390.17867091 102.82174912 391.11200424 131.59504515 392.04533757 104.53898333 392.97867091 129.22717411 393.91200424 83.92624034 394.84533757 130.56873316 395.77867091 98.3412399 396.71200424 135.19065518 397.64533757 85.75343163 398.57867091 138.49585162 399.51200424 94.39492613 400.44533757 128.6848388 401.37867091 103.48921751 402.31200424 119.95642715 403.24533757 110.19853036 404.17867091 134.17427658 405.11200424 106.48234005 406.04533757 124.96133641 406.97867091 114.09517719 407.91200424 131.656439 408.84533757 104.62507268 409.77867091 118.82553868 410.71200424 102.95419427 411.64533757 121.51555496 412.57867091 103.60220979 413.51200424 135.17189212 414.44533757 110.18487195 415.37867091 123.92233176 416.31200424 112.52515025 417.24533757 128.5494964 418.17867091 93.04550315 419.11200424 132.25671907 420.04533757 96.42699352 420.97867091 124.68678864 421.91200424 95.46566243 422.84533757 132.51622879 423.77867091 112.99698611 424.71200424 132.04480682 425.64533757 93.34791959 426.57867091 130.78381857 427.51200424 106.91913314 428.44533757 129.15626077 429.37867091 104.82360245 430.31200424 129.2139296 431.24533757 104.36087219 432.17867091 141.6636362 433.11200424 96.1575504 434.04533757 141.40702371 434.97867091 107.13711579 435.91200424 132.04039198 436.84533757 102.12861947 437.77867091 136.97369808 438.71200424 104.53691388 439.64533757 142.26667555 440.57867091 104.58382154 441.51200424 132.2489931 442.44533757 91.23914439 443.37867091 129.91271575 444.31200424 90.65252272 445.24533757 147.32373509 446.17867091 96.3825692 447.11200424 134.9058981 448.04533757 97.42819611 448.97867091 125.97730112 449.91200424 90.34375995 450.84533757 131.25330906 451.77867091 96.34159398 452.71200424 143.77958552 453.64533757 93.2543802 454.57867091 137.51023892 455.51200424 99.41101045 456.44533757 137.29515351 457.37867091 91.84563283 458.31200424 130.17125973 459.24533757 94.21571128 460.17867091 145.12528348 461.11200424 95.63908281 462.04533757 137.64392575 462.97867091 108.57290405 463.91200424 130.65937531 464.84533757 94.29559227 465.77867091 143.18992865 466.71200424 93.46712023 467.64533757 146.34515854 468.57867091 91.9973929 469.51200424 130.12145484 470.44533757 94.82882198 471.37867091 141.13882228 472.31200424 103.15189626 473.24533757 129.89450454 474.17867091 110.6278734 475.11200424 134.76724457 476.04533757 86.34350238 476.97867091 139.05377683 477.91200424 97.40405246 478.84533757 123.3634408 479.77867091 93.80830447 480.71200424 139.43635018 481.64533757 98.38621606 482.57867091 140.48515025 483.51200424 86.66619948 484.44533757 134.20545638 485.37867091 98.26756728 486.31200424 139.42531308 487.24533757 106.43032774 488.17867091 139.94874737 489.11200424 93.73739112 490.04533757 132.90349291 490.97867091 96.53391539 491.91200424 138.77840128 492.84533757 97.00492347 493.77867091 131.60194333 494.71200424 93.65544068 495.64533757 123.8743204 496.57867091 99.28325606 497.51200424 129.4590911 498.44533757 111.42668325 499.37867091 137.00198064 500.31200424 98.14353791 501.24533757 135.43360926 502.17867091 97.54932824 503.11200424 133.27516713 504.04533757 99.89747047 504.97867091 128.99470527 505.91200424 97.86843829 506.84533757 131.43928413 507.77867091 89.05807621 508.71200424 140.7479711 509.64533757 95.66143293 510.57867091 140.80315659 511.51200424 94.26041152 512.44533757 139.88956094 513.37867091 101.8837339 514.31200424 123.87169909 515.24533757 91.05123782 516.17867091 128.07090032 517.11200424 104.32417385 518.04533757 120.11812061 518.97867091 98.16588803 519.91200424 122.45343222 520.84533757 104.99233206 521.77867091 131.2406164 522.71200424 114.93923913 523.64533757 130.3048086 524.57867091 116.74794328 525.51200424 131.11575924 526.44533757 104.46958759 527.37867091 131.18211979 528.31200424 100.87177014 529.24533757 135.75106374 530.17867091 106.50896705 531.11200424 131.90849868 532.04533757 98.57246706 532.97867091 131.18198182 533.91200424 105.01647571 534.84533757 130.9346129 535.77867091 105.2897818 536.71200424 130.44332416 537.64533757 90.57112414 538.57867091 139.14538473 539.51200424 102.01148829 540.44533757 134.92286763 541.37867091 100.33729875 542.31200424 129.79627439 543.24533757 88.49380466 544.17867091 122.64451195 545.11200424 108.73970216 546.04533757 144.49644492 546.97867091 88.63908044 547.91200424 138.68568967 548.84533757 87.45562779 549.77867091 135.63545016 550.71200424 92.46771116 551.64533757 141.41792285 552.57867091 91.70904876 553.51200424 131.09258134 554.44533757 100.7883021 555.37867091 137.28039139 556.31200424 105.21693697 557.24533757 135.47251503 558.17867091 102.93253397 559.11200424 150.44212867 560.04533757 91.5116227 560.97867091 135.63255292 561.91200424 108.30525446 562.84533757 136.8173852 563.77867091 108.52033988 564.71200424 143.78262072 565.64533757 96.15534298 566.57867091 127.50345561 567.51200424 83.17985671 568.44533757 135.39387571 569.37867091 103.29041182 570.31200424 129.5613222 571.24533757 93.9602025 572.17867091 124.90021849 573.11200424 91.83859668 574.04533757 138.82172188 574.97867091 102.5683098 575.91200424 136.61568227 576.84533757 97.58450899 577.77867091 132.47787489 578.71200424 99.98990615 579.64533757 139.23312964 580.57867091 97.50849098 581.51200424 134.16075614 582.44533757 91.76602777 583.37867091 126.84964562 584.31200424 91.23983421 585.24533757 126.57771916 586.17867091 95.25485389 587.11200424 140.4051313 588.04533757 108.11072564 588.97867091 135.41153507 589.91200424 108.21764751 590.84533757 131.81123427 591.77867091 90.26236137 592.71200424 134.25112236 593.64533757 99.22917429 594.57867091 134.63355775 595.51200424 107.66248157 596.44533757 131.95361281 597.37867091 98.86329455 598.31200424 141.94853125 599.24533757 96.16541434 600.17867091 125.85106433 601.11200424 102.55589306 602.04533757 127.23525417 602.97867091 94.01373242 603.91200424 135.4737567 604.84533757 106.29843444 605.77867091 115.13569944 606.71200424 87.56627468 607.64533757 132.48891198 608.57867091 97.92527933 609.51200424 144.00750155 610.44533757 97.64217781 611.37867091 129.1192865 612.31200424 92.25276371 613.24533757 122.70273263 614.17867091 103.55185304 615.11200424 131.55945051 616.04533757 92.44660272 616.97867091 140.32621606 617.91200424 110.37319241 618.84533757 125.89700625 619.77867091 95.38288421 620.71200424 123.49395447 621.64533757 101.86524677 622.57867091 126.78673417 623.51200424 92.61464251 624.44533757 119.53812121 625.37867091 93.81189152 626.31200424 132.47139059 627.24533757 99.3994215 628.17867091 126.97146757 629.11200424 115.64989016 630.04533757 134.29637446 630.97867091 118.43496344 631.91200424 136.48116766 632.84533757 110.97002339 633.77867091 125.12951417 634.71200424 95.16117654 635.64533757 123.84727951 636.57867091 110.14279302 637.51200424 126.0963638 638.44533757 108.52875566 639.37867091 123.95089025 640.31200424 115.88208307 641.24533757 121.62702964 642.17867091 102.83154454 643.11200424 133.91862984 644.04533757 92.23758771 644.97867091 126.69278089 645.91200424 103.87744738 646.84533757 137.51837878 647.77867091 101.27379637 648.71200424 141.40509222 649.64533757 102.14724457 650.57867091 126.62407496 651.51200424 108.19667703 652.44533757 140.30041685 653.37867091 111.06770169 654.31200424 141.4048163 655.24533757 91.00888297 656.17867091 135.40615448 657.11200424 104.95742724 658.04533757 122.81807028 658.97867091 100.01832667 659.91200424 126.49149184 660.84533757 104.80180419 661.77867091 128.47568582 662.71200424 104.43716612 663.64533757 135.1244326 664.57867091 104.50918317 665.51200424 140.67912722 666.44533757 106.07865826 667.37867091 132.32887409 668.31200424 93.57238654 669.24533757 127.2028327 670.17867091 99.55532048 671.11200424 138.52703141 672.04533757 102.24299138 672.97867091 135.08883797 673.91200424 105.87405809 674.84533757 133.88993339 675.77867091 104.50214702 676.71200424 119.43920123 677.64533757 94.77777541 678.57867091 137.10365989 679.51200424 99.86642863 680.44533757 131.98382686 681.37867091 97.12481393 682.31200424 131.31718625 683.24533757 95.22919265 684.17867091 139.16469965 685.11200424 91.30040027 686.04533757 133.0217278 686.97867091 108.03760488 687.91200424 127.18434556 688.84533757 110.47514759 689.77867091 139.03322024 690.71200424 110.57282589 691.64533757 133.23391598 692.57867091 107.82251947 693.51200424 116.38965154 694.44533757 99.06775676 695.37867091 140.80550197 696.31200424 109.33487758 697.24533757 137.95517186 698.17867091 96.05918228 699.11200424 133.00503419 700.04533757 114.52948693 700.97867091 118.66287947 701.91200424 105.24356396 702.84533757 120.48082719 703.77867091 109.49257009 704.71200424 125.9412926 705.64533757 106.33747817 706.57867091 123.39875951 707.51200424 107.28404713 708.44533757 122.93602925 709.37867091 94.46570151 710.31200424 129.70797762 711.24533757 108.62974509 712.17867091 127.93955887 713.11200424 98.77210054 714.04533757 136.10576842 714.97867091 98.2481144 715.91200424 116.1275205 716.84533757 96.55088492 717.77867091 141.05038754 718.71200424 100.99869675 719.64533757 135.35662551 720.57867091 109.20864079 721.51200424 129.20040915 722.44533757 101.13859194 723.37867091 129.71046096 724.31200424 103.28682476 725.24533757 126.94166741 726.17867091 111.48035113 727.11200424 121.46809545 728.04533757 103.86075377 728.97867091 117.62897948 729.91200424 99.23469284 730.84533757 131.10996477 731.77867091 106.95817687 732.71200424 133.16534802 733.64533757 98.79541641 734.57867091 126.7292033 735.51200424 86.595838 736.44533757 135.73768126 737.37867091 100.95372058 738.31200424 135.70677739 739.24533757 101.14742162 740.17867091 144.28701602 741.11200424 108.13666282 742.04533757 135.54618764 742.97867091 105.31433934 743.91200424 127.56402167 744.84533757 98.53025017 745.77867091 143.082179 746.71200424 99.84463037 747.64533757 126.04255795 748.57867091 102.66212511 749.51200424 119.23625662 750.44533757 98.50569263 751.37867091 129.56021849 752.31200424 102.51008911 753.24533757 131.60925541 754.17867091 102.04390976 755.11200424 123.02887882 756.04533757 89.57116322 756.97867091 116.97047873 757.91200424 98.06834769 758.84533757 127.6030654 759.77867091 103.11699144 760.71200424 121.70332356 761.64533757 106.16378186 762.57867091 123.9050863 763.51200424 113.24104391 764.44533757 135.24639252 765.37867091 101.66616514 766.31200424 126.707543 767.24533757 116.23140717 768.17867091 142.20059093 769.11200424 94.96871717 770.04533757 125.22788229 770.97867091 103.15355183 771.91200424 123.49698967 772.84533757 90.49965894 773.77867091 138.61408651 774.71200424 100.40710839 775.64533757 122.6093312 776.57867091 106.5296616 777.51200424 139.36226367 778.44533757 102.07522752 779.37867091 129.35920538 780.31200424 99.62857921 781.24533757 126.67305208 782.17867091 99.49420256 783.11200424 138.59201232 784.04533757 100.71145632 784.97867091 132.86555289 785.91200424 113.17882228 786.84533757 126.09581194 787.77867091 103.12444148 788.71200424 132.59969684 789.64533757 92.30408621 790.57867091 120.06017586 791.51200424 115.61843444 792.44533757 125.00865796 793.37867091 106.58470912 794.31200424 121.61199159 795.24533757 109.3089404 796.17867091 143.7617882 797.11200424 109.07191876 798.04533757 126.02751991 798.97867091 94.52819907 799.91200424 134.79469935 800.84533757 105.01702756 801.77867091 117.91649584 802.71200424 105.51383486 803.64533757 135.73009326 804.57867091 101.77984723 805.51200424 134.04238328 806.44533757 92.63492317 807.37867091 118.00493057 808.31200424 92.62043698 809.24533757 136.65417414 810.17867091 94.02338988 811.11200424 141.09467389 812.04533757 101.40003316 812.97867091 138.73590846 813.91200424 105.19113776 814.84533757 140.53605886 815.77867091 97.13764455 816.71200424 121.49748172 817.64533757 86.46256506 818.57867091 129.77971874 819.51200424 103.34752879 820.44533757 134.50152648 821.37867091 96.79508068 822.31200424 132.21560589 823.24533757 98.64820914 824.17867091 131.49267608 825.11200424 85.8367617 826.04533757 143.78082719 826.97867091 95.90604257 827.91200424 135.20279599 828.84533757 88.42592652 829.77867091 149.38104983 830.71200424 80.32980253 831.64533757 134.40122687 832.57867091 83.59995618 833.51200424 138.91305385 834.44533757 100.7042822 835.37867091 145.74211919 836.31200424 88.84616396 837.24533757 140.3538088 838.17867091 107.64799538 839.11200424 131.20557362 840.04533757 93.70648725 840.97867091 124.65078012 841.91200424 106.65576043 842.84533757 133.14313586 843.77867091 96.15920597 844.71200424 122.90636705 845.64533757 103.06084022 846.57867091 132.53168073 847.51200424 97.2362886 848.44533757 134.05783521 849.37867091 89.31179146 850.31200424 130.87956538 851.24533757 103.40285224 852.17867091 144.04475175 853.11200424 107.7186328 854.04533757 130.68448471 854.97867091 105.54832578 855.91200424 142.36863073 856.84533757 102.42344791 857.77867091 141.61824614 858.71200424 102.05991355 859.64533757 137.89267431 860.57867091 95.42123812 861.51200424 135.57253871 862.44533757 102.28824348 863.37867091 136.6919762 864.31200424 106.56580809 865.24533757 126.57427007 866.17867091 105.13871155 867.11200424 125.49925689 868.04533757 96.57254522 868.97867091 136.39604405 869.91200424 98.92234301 870.84533757 137.80796459 871.77867091 96.76362495 872.71200424 132.65639992 873.64533757 97.44682121 874.57867091 132.45635255 875.51200424 87.64367232 876.44533757 122.12121562 877.37867091 99.04623442 878.31200424 143.25063268 879.24533757 94.13169139 880.17867091 140.76135358 881.11200424 99.00181011 882.04533757 131.20391805 882.97867091 100.37054801 883.91200424 137.52955384 884.84533757 94.2783468 885.77867091 135.12332889 886.71200424 104.94252716 887.64533757 130.66489386 888.57867091 90.25173817 889.51200424 148.56596027 890.44533757 85.43252805 891.37867091 135.84460313 892.31200424 102.29238239 893.24533757 135.2034858 894.17867091 87.40609882 895.11200424 140.09098795 896.04533757 88.25554134 896.97867091 138.75618912 897.91200424 101.66685496 898.84533757 129.86553217 899.77867091 79.95633478 900.71200424 144.88329514 901.64533757 106.77220179 902.57867091 128.57391598 903.51200424 103.60414128 904.44533757 125.94984635 905.37867091 98.63234331 906.31200424 118.63128579 907.24533757 89.10815703 908.17867091 136.58602007 909.11200424 108.86524913 910.04533757 131.20240045 910.97867091 101.22509518 911.91200424 140.37367558 912.84533757 102.27706842 913.77867091 134.60444741 914.71200424 86.77201765 915.64533757 124.7416982 916.57867091 96.62248808 917.51200424 120.12832993 918.44533757 101.36554223 919.37867091 128.88405838 920.31200424 102.79953696 921.24533757 131.19743376 922.17867091 84.90840394 923.11200424 126.95201468 924.04533757 112.62613968 924.97867091 133.59110401 925.91200424 103.45196732 926.84533757 136.00367528 927.77867091 87.00848743 928.71200424 126.75210528 929.64533757 101.50088463 930.57867091 137.21982532 931.51200424 97.47565562 932.44533757 137.27735619 933.37867091 107.19326702 934.31200424 142.76665601 935.24533757 97.65128342 936.17867091 136.11859905 937.11200424 96.35249312 938.04533757 143.83463303 938.97867091 94.75252805 939.91200424 145.06899429 940.84533757 87.89821535 941.77867091 132.08454037 942.71200424 89.66194333 943.64533757 148.27554667 944.57867091 92.18391983 945.51200424 127.41640051 946.44533757 98.7118104 947.37867091 150.00878468 948.31200424 89.69519259 949.24533757 149.01986085 950.17867091 78.35126506 951.11200424 136.20413654 952.04533757 107.79106374 952.97867091 143.36486663 953.91200424 101.23902952 954.84533757 129.41894366 955.77867091 88.6829529 956.71200424 134.46331054 957.64533757 97.512216 958.57867091 139.92998431 959.51200424 105.56681292 960.44533757 121.15436599 961.37867091 106.50634574 962.31200424 129.63954762 963.24533757 95.54540545 964.17867091 131.51544009 965.11200424 99.73605294 966.04533757 149.42133523 966.97867091 104.56630015 967.91200424 133.89779732 968.84533757 98.93848477 969.77867091 132.00783255 970.71200424 96.87068479 971.64533757 137.32688516 972.57867091 98.96759511 973.51200424 140.33532167 974.44533757 96.94049442 975.37867091 132.23505877 976.31200424 105.25846404 977.24533757 130.80216775 978.17867091 90.72122865 979.11200424 133.00061936 980.04533757 95.11964947 980.97867091 135.10525565 981.91200424 89.40698641 982.84533757 129.1751618 983.77867091 91.63923913 984.71200424 139.01073216 985.64533757 93.37095953 986.57867091 120.37956183 987.51200424 93.34874737 988.44533757 124.29262634 989.37867091 99.39569648 990.31200424 124.87069426 991.24533757 98.21045031 992.17867091 124.25868727 993.11200424 111.43813423 994.04533757 143.01512864 994.97867091 99.90009178 995.91200424 144.04985641 996.84533757 102.44662581 997.77867091 146.07612932 998.71200424 98.58529769 999.64533757 131.63105368 1000.57867091 88.99171566 1001.51200424 124.33360156 1002.44533757 94.62077272 1003.37867091 122.15791397 1004.31200424 104.0518335 1005.24533757 125.20553217 1006.17867091 87.91242562 1007.11200424 148.86603132 1008.04533757 109.80988661 1008.97867091 129.19254522 1009.91200424 107.11614531 1010.84533757 116.41558871 1011.77867091 98.04310033 1012.71200424 121.44960831 1013.64533757 97.56409036 1014.57867091 136.88443556 1015.51200424 100.88956746 1016.44533757 127.9786026 1017.37867091 98.15595464 1018.31200424 131.32905113 1019.24533757 97.52352903 1020.17867091 120.7955224 1021.11200424 84.87956953 1022.04533757 139.65447079 1022.97867091 94.35712408 1023.91200424 116.48332889 1024.84533757 98.28550256 1025.77867091 129.18509518 1026.71200424 106.53297273 1027.64533757 120.03230719 1028.57867091 95.80298369 1029.51200424 125.15365781 1030.44533757 101.73293957 1031.37867091 122.35299464 1032.31200424 98.9573858 1033.24533757 129.48626995 1034.17867091 111.14813453 1035.11200424 136.15212423 1036.04533757 86.89439145 1036.97867091 131.13093525 1037.91200424 97.96114989 1038.84533757 120.15716434 1039.77867091 97.05072742 1040.71200424 132.98558131 1041.64533757 108.46253308 1042.57867091 135.63696776 1043.51200424 113.47820351 1044.44533757 132.32266572 1045.37867091 86.72510999 1046.31200424 129.38500459 1047.24533757 109.1010291 1048.17867091 124.83096071 1049.11200424 88.32673062 1050.04533757 119.83170797 1050.97867091 108.10879415 1051.91200424 136.42529236 1052.84533757 97.09115078 1053.77867091 121.61502679 1054.71200424 101.30290671 1055.64533757 115.92098884 1056.57867091 111.43661663 1057.51200424 130.60929449 1058.44533757 119.3815324 1059.37867091 122.56863191 1060.31200424 110.84240696 1061.24533757 125.47235397 1062.17867091 95.83278385 1063.11200424 124.89870089 1064.04533757 103.52274269 1064.97867091 116.2921112 1065.91200424 114.24735116 1066.84533757 118.5251917 1067.77867091 96.11533351 1068.71200424 140.763561 1069.64533757 98.65483139 1070.57867091 123.83651834 1071.51200424 106.99252983 1072.44533757 122.89132901 1073.37867091 99.3123664 1074.31200424 122.61829884 1075.24533757 103.14623975 1076.17867091 125.86582645 1077.11200424 107.07903307 1078.04533757 128.51183231 1078.97867091 92.16419102 1079.91200424 122.12273322 1080.84533757 95.51201824 1081.77867091 127.47351748 1082.71200424 103.27647748 1083.64533757 125.0548758 1084.57867091 110.11533825 1085.51200424 123.17594813 1086.44533757 91.25376854 1087.37867091 124.05753619 1088.31200424 104.99357373 1089.24533757 126.32703911 1090.17867091 101.73431921 1091.11200424 131.46770465 1092.04533757 97.79021287 1092.97867091 119.75086124 1093.91200424 112.6640797 1094.84533757 142.35193712 1095.77867091 96.52563756 1096.66666667 135.17147822" stroke="#0085CC" stroke-width="1" fill="none"/><g><text x="20" y="250.33333333333337" stroke="none" text-anchor="start" fill="#EAA228" font-size="12pt">V(v_in)</text></g><rect x="70" y="270.33333333333337" width="1120" height="155.33333333333334" stroke="#EFEFEF" stroke-width="1" fill="#333333"/><g><text x="70" y="442.66666666666674" stroke="none" text-anchor="middle" fill="#EFEFEF" font-size="12pt">-200ms</text></g><polyline points="163.33333333333331 270.33333333333337 163.33333333333331 425.66666666666674" stroke="#EFEFEF" stroke-width="1" stroke-dasharray="2,8" fill="none"/><g><text x="163.33333333333331" y="442.66666666666674" stroke="none" text-anchor="middle" fill="#EFEFEF" font-size="12pt">0s</text></g><polyline points="256.66666666666663 270.33333333333337 256.66666666666663 425.66666666666674" stroke="#EFEFEF" stroke-width="1" stroke-dasharray="2,8" fill="none"/><g><text x="256.66666666666663" y="442.66666666666674" stroke="none" text-anchor="middle" fill="#EFEFEF" font-size="12pt">200ms</text></g><polyline points="350 270.33333333333337 350 425.66666666666674" stroke="#EFEFEF" stroke-width="1" stroke-dasharray="2,8" fill="none"/><g><text x="350" y="442.66666666666674" stroke="none" text-anchor="middle" fill="#EFEFEF" font-size="12pt">400ms</text></g><polyline points="443.3333333333333 270.33333333333337 443.3333333333333 425.66666666666674" stroke="#EFEFEF" stroke-width="1" stroke-dasharray="2,8" fill="none"/><g><text x="443.3333333333333" y="442.66666666666674" stroke="none" text-anchor="middle" fill="#EFEFEF" font-size="12pt">600ms</text></g><polyline points="536.6666666666666 270.33333333333337 536.6666666666666 425.66666666666674" stroke="#EFEFEF" stroke-width="1" stroke-dasharray="2,8" fill="none"/><g><text x="536.6666666666666" y="442.66666666666674" stroke="none" text-anchor="middle" fill="#EFEFEF" font-size="12pt">800ms</text></g><polyline points="630 270.33333333333337 630 425.66666666666674" stroke="#EFEFEF" stroke-width="1" stroke-dasharray="2,8" fill="none"/><g><text x="630" y="442.66666666666674" stroke="none" text-anchor="middle" fill="#EFEFEF" font-size="12pt">1s</text></g><polyline points="723.3333333333333 270.33333333333337 723.3333333333333 425.66666666666674" stroke="#EFEFEF" stroke-width="1" stroke-dasharray="2,8" fill="none"/><g><text x="723.3333333333333" y="442.66666666666674" stroke="none" text-anchor="middle" fill="#EFEFEF" font-size="12pt">1.2s</text></g><polyline points="816.6666666666666 270.33333333333337 816.6666666666666 425.66666666666674" stroke="#EFEFEF" stroke-width="1" stroke-dasharray="2,8" fill="none"/><g><text x="816.6666666666666" y="442.66666666666674" stroke="none" text-anchor="middle" fill="#EFEFEF" font-size="12pt">1.4s</text></g><polyline points="910 270.33333333333337 910 425.66666666666674" stroke="#EFEFEF" stroke-width="1" stroke-dasharray="2,8" fill="none"/><g><text x="910" y="442.66666666666674" stroke="none" text-anchor="middle" fill="#EFEFEF" font-size="12pt">1.6s</text></g><polyline points="1003.3333333333333 270.33333333333337 1003.3333333333333 425.66666666666674" stroke="#EFEFEF" stroke-width="1" stroke-dasharray="2,8" fill="none"/><g><text x="1003.3333333333333" y="442.66666666666674" stroke="none" text-anchor="middle" fill="#EFEFEF" font-size="12pt">1.8s</text></g><polyline points="1096.6666666666665 270.33333333333337 1096.6666666666665 425.66666666666674" stroke="#EFEFEF" stroke-width="1" stroke-dasharray="2,8" fill="none"/><g><text x="1096.6666666666665" y="442.66666666666674" stroke="none" text-anchor="middle" fill="#EFEFEF" font-size="12pt">2s</text></g><polyline points="1190 270.33333333333337 1190 425.66666666666674" stroke="#EFEFEF" stroke-width="1" stroke-dasharray="2,8" fill="none"/><g><text x="1190" y="442.66666666666674" stroke="none" text-anchor="middle" fill="#EFEFEF" font-size="12pt">2.2s</text></g><g><text x="65" y="270.33333333333337" stroke="none" text-anchor="end" fill="#EFEFEF" font-size="12pt">20V</text></g><polyline points="70 348.00000000000006 1190 348.00000000000006" stroke="#EFEFEF" stroke-width="1" stroke-dasharray="2,8" fill="none"/><g><text x="65" y="348.00000000000006" stroke="none" text-anchor="end" fill="#EFEFEF" font-size="12pt">10V</text></g><polyline points="70 425.66666666666674 1190 425.66666666666674" stroke="#EFEFEF" stroke-width="1" stroke-dasharray="2,8" fill="none"/><g><text x="65" y="425.66666666666674" stroke="none" text-anchor="end" fill="#EFEFEF" font-size="12pt">0V</text></g><polyline points="163.33333333 332.46666667 163.3333338 332.46666667 163.33333427 332.46666667 163.3333352 332.46666667 163.33333707 332.46666667 163.3333408 332.46666667 163.33334827 332.46666667 163.3333632 332.46666667 163.33339307 332.46666667 163.3334528 332.46666667 163.33357227 332.46666667 163.3338112 332.46666667 163.33428907 332.46666667 163.3352448 332.46666667 163.33715627 332.46666667 163.3409792 332.46666667 163.34862507 332.46666667 163.3639168 332.46666667 163.39450026 332.46666667 163.4556672 332.46666667 163.57800106 332.46666667 163.82266879 332.46666667 164.31200424 332.46666667 165.24533757 332.46666667 166.17867091 332.46666667 167.11200424 332.46666667 168.04533757 332.46666667 168.97867091 332.46666667 169.91200424 332.46666667 170.84533757 332.46666667 171.77867091 332.46666667 172.71200424 332.46666667 173.64533757 332.46666667 174.57867091 332.46666667 175.51200424 332.46666667 176.44533757 332.46666667 177.37867091 332.46666667 178.31200424 332.46666667 179.24533757 332.46666667 180.17867091 332.46666667 181.11200424 332.46666667 182.04533757 332.46666667 182.97867091 332.46666667 183.91200424 332.46666667 184.84533757 332.46666667 185.77867091 332.46666667 186.71200424 332.46666667 187.64533757 332.46666667 188.57867091 332.46666667 189.51200424 332.46666667 190.44533757 332.46666667 191.37867091 332.46666667 192.31200424 332.46666667 193.24533757 332.46666667 194.17867091 332.46666667 195.11200424 332.46666667 196.04533757 332.46666667 196.97867091 332.46666667 197.91200424 332.46666667 198.84533757 332.46666667 199.77867091 332.46666667 200.71200424 332.46666667 201.64533757 332.46666667 202.57867091 332.46666667 203.51200424 332.46666667 204.44533757 332.46666667 205.37867091 332.46666667 206.31200424 332.46666667 207.24533757 332.46666667 208.17867091 332.46666667 209.11200424 332.46666667 210.04533757 332.46666667 210.97867091 332.46666667 211.91200424 332.46666667 212.84533757 332.46666667 213.77867091 332.46666667 214.71200424 332.46666667 215.64533757 332.46666667 216.57867091 332.46666667 217.51200424 332.46666667 218.44533757 332.46666667 219.37867091 332.46666667 220.31200424 332.46666667 221.24533757 332.46666667 222.17867091 332.46666667 223.11200424 332.46666667 224.04533757 332.46666667 224.97867091 332.46666667 225.91200424 332.46666667 226.84533757 332.46666667 227.77867091 332.46666667 228.71200424 332.46666667 229.64533757 332.46666667 230.57867091 332.46666667 231.51200424 332.46666667 232.44533757 332.46666667 233.37867091 332.46666667 234.31200424 332.46666667 235.24533757 332.46666667 236.17867091 332.46666667 237.11200424 332.46666667 238.04533757 332.46666667 238.97867091 332.46666667 239.91200424 332.46666667 240.84533757 332.46666667 241.77867091 332.46666667 242.71200424 332.46666667 243.64533757 332.46666667 244.57867091 332.46666667 245.51200424 332.46666667 246.44533757 332.46666667 247.37867091 332.46666667 248.31200424 332.46666667 249.24533757 332.46666667 250.17867091 332.46666667 251.11200424 332.46666667 252.04533757 332.46666667 252.97867091 332.46666667 253.91200424 332.46666667 254.84533757 332.46666667 255.77867091 332.46666667 256.71200424 332.46666667 257.64533757 332.46666667 258.57867091 332.46666667 259.51200424 332.46666667 260.44533757 332.46666667 261.37867091 332.46666667 262.31200424 332.46666667 263.24533757 332.46666667 264.17867091 332.46666667 265.11200424 332.46666667 266.04533757 332.46666667 266.97867091 332.46666667 267.91200424 332.46666667 268.84533757 332.46666667 269.77867091 332.46666667 270.71200424 332.46666667 271.64533757 332.46666667 272.57867091 332.46666667 273.51200424 332.46666667 274.44533757 332.46666667 275.37867091 332.46666667 276.31200424 332.46666667 277.24533757 332.46666667 278.17867091 332.46666667 279.11200424 332.46666667 280.04533757 332.46666667 280.97867091 332.46666667 281.91200424 332.46666667 282.84533757 332.46666667 283.77867091 332.46666667 284.71200424 332.46666667 285.64533757 332.46666667 286.57867091 332.46666667 287.51200424 332.46666667 288.44533757 332.46666667 289.37867091 332.46666667 290.31200424 332.46666667 291.24533757 332.46666667 292.17867091 332.46666667 293.11200424 332.46666667 294.04533757 332.46666667 294.97867091 332.46666667 295.91200424 332.46666667 296.84533757 332.46666667 297.77867091 332.46666667 298.71200424 332.46666667 299.64533757 332.46666667 300.57867091 332.46666667 301.51200424 332.46666667 302.44533757 332.46666667 303.37867091 332.46666667 304.31200424 332.46666667 305.24533757 332.46666667 306.17867091 332.46666667 307.11200424 332.46666667 308.04533757 332.46666667 308.97867091 332.46666667 309.91200424 332.46666667 310.84533757 332.46666667 311.77867091 332.46666667 312.71200424 332.46666667 313.64533757 332.46666667 314.57867091 332.46666667 315.51200424 332.46666667 316.44533757 332.46666667 317.37867091 332.46666667 318.31200424 332.46666667 319.24533757 332.46666667 320.17867091 332.46666667 321.11200424 332.46666667 322.04533757 332.46666667 322.97867091 332.46666667 323.91200424 332.46666667 324.84533757 332.46666667 325.77867091 332.46666667 326.71200424 332.46666667 327.64533757 332.46666667 328.57867091 332.46666667 329.51200424 332.46666667 330.44533757 332.46666667 331.37867091 332.46666667 332.31200424 332.46666667 333.24533757 332.46666667 334.17867091 332.46666667 335.11200424 332.46666667 336.04533757 332.46666667 336.97867091 332.46666667 337.91200424 332.46666667 338.84533757 332.46666667 339.77867091 332.46666667 340.71200424 332.46666667 341.64533757 332.46666667 342.57867091 332.46666667 343.51200424 332.46666667 344.44533757 332.46666667 345.37867091 332.46666667 346.31200424 332.46666667 347.24533757 332.46666667 348.17867091 332.46666667 349.11200424 332.46666667 350.04533757 332.46666667 350.97867091 332.46666667 351.91200424 332.46666667 352.84533757 332.46666667 353.77867091 332.46666667 354.71200424 332.46666667 355.64533757 332.46666667 356.57867091 332.46666667 357.51200424 332.46666667 358.44533757 332.46666667 359.37867091 332.46666667 360.31200424 332.46666667 361.24533757 332.46666667 362.17867091 332.46666667 363.11200424 332.46666667 364.04533757 332.46666667 364.97867091 332.46666667 365.91200424 332.46666667 366.84533757 332.46666667 367.77867091 332.46666667 368.71200424 332.46666667 369.64533757 332.46666667 370.57867091 332.46666667 371.51200424 332.46666667 372.44533757 332.46666667 373.37867091 332.46666667 374.31200424 332.46666667 375.24533757 332.46666667 376.17867091 332.46666667 377.11200424 332.46666667 378.04533757 332.46666667 378.97867091 332.46666667 379.91200424 332.46666667 380.84533757 332.46666667 381.77867091 332.46666667 382.71200424 332.46666667 383.64533757 332.46666667 384.57867091 332.46666667 385.51200424 332.46666667 386.44533757 332.46666667 387.37867091 332.46666667 388.31200424 332.46666667 389.24533757 332.46666667 390.17867091 332.46666667 391.11200424 332.46666667 392.04533757 332.46666667 392.97867091 332.46666667 393.91200424 332.46666667 394.84533757 332.46666667 395.77867091 332.46666667 396.71200424 332.46666667 397.64533757 332.46666667 398.57867091 332.46666667 399.51200424 332.46666667 400.44533757 332.46666667 401.37867091 332.46666667 402.31200424 332.46666667 403.24533757 332.46666667 404.17867091 332.46666667 405.11200424 332.46666667 406.04533757 332.46666667 406.97867091 332.46666667 407.91200424 332.46666667 408.84533757 332.46666667 409.77867091 332.46666667 410.71200424 332.46666667 411.64533757 332.46666667 412.57867091 332.46666667 413.51200424 332.46666667 414.44533757 332.46666667 415.37867091 332.46666667 416.31200424 332.46666667 417.24533757 332.46666667 418.17867091 332.46666667 419.11200424 332.46666667 420.04533757 332.46666667 420.97867091 332.46666667 421.91200424 332.46666667 422.84533757 332.46666667 423.77867091 332.46666667 424.71200424 332.46666667 425.64533757 332.46666667 426.57867091 332.46666667 427.51200424 332.46666667 428.44533757 332.46666667 429.37867091 332.46666667 430.31200424 332.46666667 431.24533757 332.46666667 432.17867091 332.46666667 433.11200424 332.46666667 434.04533757 332.46666667 434.97867091 332.46666667 435.91200424 332.46666667 436.84533757 332.46666667 437.77867091 332.46666667 438.71200424 332.46666667 439.64533757 332.46666667 440.57867091 332.46666667 441.51200424 332.46666667 442.44533757 332.46666667 443.37867091 332.46666667 444.31200424 332.46666667 445.24533757 332.46666667 446.17867091 332.46666667 447.11200424 332.46666667 448.04533757 332.46666667 448.97867091 332.46666667 449.91200424 332.46666667 450.84533757 332.46666667 451.77867091 332.46666667 452.71200424 332.46666667 453.64533757 332.46666667 454.57867091 332.46666667 455.51200424 332.46666667 456.44533757 332.46666667 457.37867091 332.46666667 458.31200424 332.46666667 459.24533757 332.46666667 460.17867091 332.46666667 461.11200424 332.46666667 462.04533757 332.46666667 462.97867091 332.46666667 463.91200424 332.46666667 464.84533757 332.46666667 465.77867091 332.46666667 466.71200424 332.46666667 467.64533757 332.46666667 468.57867091 332.46666667 469.51200424 332.46666667 470.44533757 332.46666667 471.37867091 332.46666667 472.31200424 332.46666667 473.24533757 332.46666667 474.17867091 332.46666667 475.11200424 332.46666667 476.04533757 332.46666667 476.97867091 332.46666667 477.91200424 332.46666667 478.84533757 332.46666667 479.77867091 332.46666667 480.71200424 332.46666667 481.64533757 332.46666667 482.57867091 332.46666667 483.51200424 332.46666667 484.44533757 332.46666667 485.37867091 332.46666667 486.31200424 332.46666667 487.24533757 332.46666667 488.17867091 332.46666667 489.11200424 332.46666667 490.04533757 332.46666667 490.97867091 332.46666667 491.91200424 332.46666667 492.84533757 332.46666667 493.77867091 332.46666667 494.71200424 332.46666667 495.64533757 332.46666667 496.57867091 332.46666667 497.51200424 332.46666667 498.44533757 332.46666667 499.37867091 332.46666667 500.31200424 332.46666667 501.24533757 332.46666667 502.17867091 332.46666667 503.11200424 332.46666667 504.04533757 332.46666667 504.97867091 332.46666667 505.91200424 332.46666667 506.84533757 332.46666667 507.77867091 332.46666667 508.71200424 332.46666667 509.64533757 332.46666667 510.57867091 332.46666667 511.51200424 332.46666667 512.44533757 332.46666667 513.37867091 332.46666667 514.31200424 332.46666667 515.24533757 332.46666667 516.17867091 332.46666667 517.11200424 332.46666667 518.04533757 332.46666667 518.97867091 332.46666667 519.91200424 332.46666667 520.84533757 332.46666667 521.77867091 332.46666667 522.71200424 332.46666667 523.64533757 332.46666667 524.57867091 332.46666667 525.51200424 332.46666667 526.44533757 332.46666667 527.37867091 332.46666667 528.31200424 332.46666667 529.24533757 332.46666667 530.17867091 332.46666667 531.11200424 332.46666667 532.04533757 332.46666667 532.97867091 332.46666667 533.91200424 332.46666667 534.84533757 332.46666667 535.77867091 332.46666667 536.71200424 332.46666667 537.64533757 332.46666667 538.57867091 332.46666667 539.51200424 332.46666667 540.44533757 332.46666667 541.37867091 332.46666667 542.31200424 332.46666667 543.24533757 332.46666667 544.17867091 332.46666667 545.11200424 332.46666667 546.04533757 332.46666667 546.97867091 332.46666667 547.91200424 332.46666667 548.84533757 332.46666667 549.77867091 332.46666667 550.71200424 332.46666667 551.64533757 332.46666667 552.57867091 332.46666667 553.51200424 332.46666667 554.44533757 332.46666667 555.37867091 332.46666667 556.31200424 332.46666667 557.24533757 332.46666667 558.17867091 332.46666667 559.11200424 332.46666667 560.04533757 332.46666667 560.97867091 332.46666667 561.91200424 332.46666667 562.84533757 332.46666667 563.77867091 332.46666667 564.71200424 332.46666667 565.64533757 332.46666667 566.57867091 332.46666667 567.51200424 332.46666667 568.44533757 332.46666667 569.37867091 332.46666667 570.31200424 332.46666667 571.24533757 332.46666667 572.17867091 332.46666667 573.11200424 332.46666667 574.04533757 332.46666667 574.97867091 332.46666667 575.91200424 332.46666667 576.84533757 332.46666667 577.77867091 332.46666667 578.71200424 332.46666667 579.64533757 332.46666667 580.57867091 332.46666667 581.51200424 332.46666667 582.44533757 332.46666667 583.37867091 332.46666667 584.31200424 332.46666667 585.24533757 332.46666667 586.17867091 332.46666667 587.11200424 332.46666667 588.04533757 332.46666667 588.97867091 332.46666667 589.91200424 332.46666667 590.84533757 332.46666667 591.77867091 332.46666667 592.71200424 332.46666667 593.64533757 332.46666667 594.57867091 332.46666667 595.51200424 332.46666667 596.44533757 332.46666667 597.37867091 332.46666667 598.31200424 332.46666667 599.24533757 332.46666667 600.17867091 332.46666667 601.11200424 332.46666667 602.04533757 332.46666667 602.97867091 332.46666667 603.91200424 332.46666667 604.84533757 332.46666667 605.77867091 332.46666667 606.71200424 332.46666667 607.64533757 332.46666667 608.57867091 332.46666667 609.51200424 332.46666667 610.44533757 332.46666667 611.37867091 332.46666667 612.31200424 332.46666667 613.24533757 332.46666667 614.17867091 332.46666667 615.11200424 332.46666667 616.04533757 332.46666667 616.97867091 332.46666667 617.91200424 332.46666667 618.84533757 332.46666667 619.77867091 332.46666667 620.71200424 332.46666667 621.64533757 332.46666667 622.57867091 332.46666667 623.51200424 332.46666667 624.44533757 332.46666667 625.37867091 332.46666667 626.31200424 332.46666667 627.24533757 332.46666667 628.17867091 332.46666667 629.11200424 332.46666667 630.04533757 332.46666667 630.97867091 332.46666667 631.91200424 332.46666667 632.84533757 332.46666667 633.77867091 332.46666667 634.71200424 332.46666667 635.64533757 332.46666667 636.57867091 332.46666667 637.51200424 332.46666667 638.44533757 332.46666667 639.37867091 332.46666667 640.31200424 332.46666667 641.24533757 332.46666667 642.17867091 332.46666667 643.11200424 332.46666667 644.04533757 332.46666667 644.97867091 332.46666667 645.91200424 332.46666667 646.84533757 332.46666667 647.77867091 332.46666667 648.71200424 332.46666667 649.64533757 332.46666667 650.57867091 332.46666667 651.51200424 332.46666667 652.44533757 332.46666667 653.37867091 332.46666667 654.31200424 332.46666667 655.24533757 332.46666667 656.17867091 332.46666667 657.11200424 332.46666667 658.04533757 332.46666667 658.97867091 332.46666667 659.91200424 332.46666667 660.84533757 332.46666667 661.77867091 332.46666667 662.71200424 332.46666667 663.64533757 332.46666667 664.57867091 332.46666667 665.51200424 332.46666667 666.44533757 332.46666667 667.37867091 332.46666667 668.31200424 332.46666667 669.24533757 332.46666667 670.17867091 332.46666667 671.11200424 332.46666667 672.04533757 332.46666667 672.97867091 332.46666667 673.91200424 332.46666667 674.84533757 332.46666667 675.77867091 332.46666667 676.71200424 332.46666667 677.64533757 332.46666667 678.57867091 332.46666667 679.51200424 332.46666667 680.44533757 332.46666667 681.37867091 332.46666667 682.31200424 332.46666667 683.24533757 332.46666667 684.17867091 332.46666667 685.11200424 332.46666667 686.04533757 332.46666667 686.97867091 332.46666667 687.91200424 332.46666667 688.84533757 332.46666667 689.77867091 332.46666667 690.71200424 332.46666667 691.64533757 332.46666667 692.57867091 332.46666667 693.51200424 332.46666667 694.44533757 332.46666667 695.37867091 332.46666667 696.31200424 332.46666667 697.24533757 332.46666667 698.17867091 332.46666667 699.11200424 332.46666667 700.04533757 332.46666667 700.97867091 332.46666667 701.91200424 332.46666667 702.84533757 332.46666667 703.77867091 332.46666667 704.71200424 332.46666667 705.64533757 332.46666667 706.57867091 332.46666667 707.51200424 332.46666667 708.44533757 332.46666667 709.37867091 332.46666667 710.31200424 332.46666667 711.24533757 332.46666667 712.17867091 332.46666667 713.11200424 332.46666667 714.04533757 332.46666667 714.97867091 332.46666667 715.91200424 332.46666667 716.84533757 332.46666667 717.77867091 332.46666667 718.71200424 332.46666667 719.64533757 332.46666667 720.57867091 332.46666667 721.51200424 332.46666667 722.44533757 332.46666667 723.37867091 332.46666667 724.31200424 332.46666667 725.24533757 332.46666667 726.17867091 332.46666667 727.11200424 332.46666667 728.04533757 332.46666667 728.97867091 332.46666667 729.91200424 332.46666667 730.84533757 332.46666667 731.77867091 332.46666667 732.71200424 332.46666667 733.64533757 332.46666667 734.57867091 332.46666667 735.51200424 332.46666667 736.44533757 332.46666667 737.37867091 332.46666667 738.31200424 332.46666667 739.24533757 332.46666667 740.17867091 332.46666667 741.11200424 332.46666667 742.04533757 332.46666667 742.97867091 332.46666667 743.91200424 332.46666667 744.84533757 332.46666667 745.77867091 332.46666667 746.71200424 332.46666667 747.64533757 332.46666667 748.57867091 332.46666667 749.51200424 332.46666667 750.44533757 332.46666667 751.37867091 332.46666667 752.31200424 332.46666667 753.24533757 332.46666667 754.17867091 332.46666667 755.11200424 332.46666667 756.04533757 332.46666667 756.97867091 332.46666667 757.91200424 332.46666667 758.84533757 332.46666667 759.77867091 332.46666667 760.71200424 332.46666667 761.64533757 332.46666667 762.57867091 332.46666667 763.51200424 332.46666667 764.44533757 332.46666667 765.37867091 332.46666667 766.31200424 332.46666667 767.24533757 332.46666667 768.17867091 332.46666667 769.11200424 332.46666667 770.04533757 332.46666667 770.97867091 332.46666667 771.91200424 332.46666667 772.84533757 332.46666667 773.77867091 332.46666667 774.71200424 332.46666667 775.64533757 332.46666667 776.57867091 332.46666667 777.51200424 332.46666667 778.44533757 332.46666667 779.37867091 332.46666667 780.31200424 332.46666667 781.24533757 332.46666667 782.17867091 332.46666667 783.11200424 332.46666667 784.04533757 332.46666667 784.97867091 332.46666667 785.91200424 332.46666667 786.84533757 332.46666667 787.77867091 332.46666667 788.71200424 332.46666667 789.64533757 332.46666667 790.57867091 332.46666667 791.51200424 332.46666667 792.44533757 332.46666667 793.37867091 332.46666667 794.31200424 332.46666667 795.24533757 332.46666667 796.17867091 332.46666667 797.11200424 332.46666667 798.04533757 332.46666667 798.97867091 332.46666667 799.91200424 332.46666667 800.84533757 332.46666667 801.77867091 332.46666667 802.71200424 332.46666667 803.64533757 332.46666667 804.57867091 332.46666667 805.51200424 332.46666667 806.44533757 332.46666667 807.37867091 332.46666667 808.31200424 332.46666667 809.24533757 332.46666667 810.17867091 332.46666667 811.11200424 332.46666667 812.04533757 332.46666667 812.97867091 332.46666667 813.91200424 332.46666667 814.84533757 332.46666667 815.77867091 332.46666667 816.71200424 332.46666667 817.64533757 332.46666667 818.57867091 332.46666667 819.51200424 332.46666667 820.44533757 332.46666667 821.37867091 332.46666667 822.31200424 332.46666667 823.24533757 332.46666667 824.17867091 332.46666667 825.11200424 332.46666667 826.04533757 332.46666667 826.97867091 332.46666667 827.91200424 332.46666667 828.84533757 332.46666667 829.77867091 332.46666667 830.71200424 332.46666667 831.64533757 332.46666667 832.57867091 332.46666667 833.51200424 332.46666667 834.44533757 332.46666667 835.37867091 332.46666667 836.31200424 332.46666667 837.24533757 332.46666667 838.17867091 332.46666667 839.11200424 332.46666667 840.04533757 332.46666667 840.97867091 332.46666667 841.91200424 332.46666667 842.84533757 332.46666667 843.77867091 332.46666667 844.71200424 332.46666667 845.64533757 332.46666667 846.57867091 332.46666667 847.51200424 332.46666667 848.44533757 332.46666667 849.37867091 332.46666667 850.31200424 332.46666667 851.24533757 332.46666667 852.17867091 332.46666667 853.11200424 332.46666667 854.04533757 332.46666667 854.97867091 332.46666667 855.91200424 332.46666667 856.84533757 332.46666667 857.77867091 332.46666667 858.71200424 332.46666667 859.64533757 332.46666667 860.57867091 332.46666667 861.51200424 332.46666667 862.44533757 332.46666667 863.37867091 332.46666667 864.31200424 332.46666667 865.24533757 332.46666667 866.17867091 332.46666667 867.11200424 332.46666667 868.04533757 332.46666667 868.97867091 332.46666667 869.91200424 332.46666667 870.84533757 332.46666667 871.77867091 332.46666667 872.71200424 332.46666667 873.64533757 332.46666667 874.57867091 332.46666667 875.51200424 332.46666667 876.44533757 332.46666667 877.37867091 332.46666667 878.31200424 332.46666667 879.24533757 332.46666667 880.17867091 332.46666667 881.11200424 332.46666667 882.04533757 332.46666667 882.97867091 332.46666667 883.91200424 332.46666667 884.84533757 332.46666667 885.77867091 332.46666667 886.71200424 332.46666667 887.64533757 332.46666667 888.57867091 332.46666667 889.51200424 332.46666667 890.44533757 332.46666667 891.37867091 332.46666667 892.31200424 332.46666667 893.24533757 332.46666667 894.17867091 332.46666667 895.11200424 332.46666667 896.04533757 332.46666667 896.97867091 332.46666667 897.91200424 332.46666667 898.84533757 332.46666667 899.77867091 332.46666667 900.71200424 332.46666667 901.64533757 332.46666667 902.57867091 332.46666667 903.51200424 332.46666667 904.44533757 332.46666667 905.37867091 332.46666667 906.31200424 332.46666667 907.24533757 332.46666667 908.17867091 332.46666667 909.11200424 332.46666667 910.04533757 332.46666667 910.97867091 332.46666667 911.91200424 332.46666667 912.84533757 332.46666667 913.77867091 332.46666667 914.71200424 332.46666667 915.64533757 332.46666667 916.57867091 332.46666667 917.51200424 332.46666667 918.44533757 332.46666667 919.37867091 332.46666667 920.31200424 332.46666667 921.24533757 332.46666667 922.17867091 332.46666667 923.11200424 332.46666667 924.04533757 332.46666667 924.97867091 332.46666667 925.91200424 332.46666667 926.84533757 332.46666667 927.77867091 332.46666667 928.71200424 332.46666667 929.64533757 332.46666667 930.57867091 332.46666667 931.51200424 332.46666667 932.44533757 332.46666667 933.37867091 332.46666667 934.31200424 332.46666667 935.24533757 332.46666667 936.17867091 332.46666667 937.11200424 332.46666667 938.04533757 332.46666667 938.97867091 332.46666667 939.91200424 332.46666667 940.84533757 332.46666667 941.77867091 332.46666667 942.71200424 332.46666667 943.64533757 332.46666667 944.57867091 332.46666667 945.51200424 332.46666667 946.44533757 332.46666667 947.37867091 332.46666667 948.31200424 332.46666667 949.24533757 332.46666667 950.17867091 332.46666667 951.11200424 332.46666667 952.04533757 332.46666667 952.97867091 332.46666667 953.91200424 332.46666667 954.84533757 332.46666667 955.77867091 332.46666667 956.71200424 332.46666667 957.64533757 332.46666667 958.57867091 332.46666667 959.51200424 332.46666667 960.44533757 332.46666667 961.37867091 332.46666667 962.31200424 332.46666667 963.24533757 332.46666667 964.17867091 332.46666667 965.11200424 332.46666667 966.04533757 332.46666667 966.97867091 332.46666667 967.91200424 332.46666667 968.84533757 332.46666667 969.77867091 332.46666667 970.71200424 332.46666667 971.64533757 332.46666667 972.57867091 332.46666667 973.51200424 332.46666667 974.44533757 332.46666667 975.37867091 332.46666667 976.31200424 332.46666667 977.24533757 332.46666667 978.17867091 332.46666667 979.11200424 332.46666667 980.04533757 332.46666667 980.97867091 332.46666667 981.91200424 332.46666667 982.84533757 332.46666667 983.77867091 332.46666667 984.71200424 332.46666667 985.64533757 332.46666667 986.57867091 332.46666667 987.51200424 332.46666667 988.44533757 332.46666667 989.37867091 332.46666667 990.31200424 332.46666667 991.24533757 332.46666667 992.17867091 332.46666667 993.11200424 332.46666667 994.04533757 332.46666667 994.97867091 332.46666667 995.91200424 332.46666667 996.84533757 332.46666667 997.77867091 332.46666667 998.71200424 332.46666667 999.64533757 332.46666667 1000.57867091 332.46666667 1001.51200424 332.46666667 1002.44533757 332.46666667 1003.37867091 332.46666667 1004.31200424 332.46666667 1005.24533757 332.46666667 1006.17867091 332.46666667 1007.11200424 332.46666667 1008.04533757 332.46666667 1008.97867091 332.46666667 1009.91200424 332.46666667 1010.84533757 332.46666667 1011.77867091 332.46666667 1012.71200424 332.46666667 1013.64533757 332.46666667 1014.57867091 332.46666667 1015.51200424 332.46666667 1016.44533757 332.46666667 1017.37867091 332.46666667 1018.31200424 332.46666667 1019.24533757 332.46666667 1020.17867091 332.46666667 1021.11200424 332.46666667 1022.04533757 332.46666667 1022.97867091 332.46666667 1023.91200424 332.46666667 1024.84533757 332.46666667 1025.77867091 332.46666667 1026.71200424 332.46666667 1027.64533757 332.46666667 1028.57867091 332.46666667 1029.51200424 332.46666667 1030.44533757 332.46666667 1031.37867091 332.46666667 1032.31200424 332.46666667 1033.24533757 332.46666667 1034.17867091 332.46666667 1035.11200424 332.46666667 1036.04533757 332.46666667 1036.97867091 332.46666667 1037.91200424 332.46666667 1038.84533757 332.46666667 1039.77867091 332.46666667 1040.71200424 332.46666667 1041.64533757 332.46666667 1042.57867091 332.46666667 1043.51200424 332.46666667 1044.44533757 332.46666667 1045.37867091 332.46666667 1046.31200424 332.46666667 1047.24533757 332.46666667 1048.17867091 332.46666667 1049.11200424 332.46666667 1050.04533757 332.46666667 1050.97867091 332.46666667 1051.91200424 332.46666667 1052.84533757 332.46666667 1053.77867091 332.46666667 1054.71200424 332.46666667 1055.64533757 332.46666667 1056.57867091 332.46666667 1057.51200424 332.46666667 1058.44533757 332.46666667 1059.37867091 332.46666667 1060.31200424 332.46666667 1061.24533757 332.46666667 1062.17867091 332.46666667 1063.11200424 332.46666667 1064.04533757 332.46666667 1064.97867091 332.46666667 1065.91200424 332.46666667 1066.84533757 332.46666667 1067.77867091 332.46666667 1068.71200424 332.46666667 1069.64533757 332.46666667 1070.57867091 332.46666667 1071.51200424 332.46666667 1072.44533757 332.46666667 1073.37867091 332.46666667 1074.31200424 332.46666667 1075.24533757 332.46666667 1076.17867091 332.46666667 1077.11200424 332.46666667 1078.04533757 332.46666667 1078.97867091 332.46666667 1079.91200424 332.46666667 1080.84533757 332.46666667 1081.77867091 332.46666667 1082.71200424 332.46666667 1083.64533757 332.46666667 1084.57867091 332.46666667 1085.51200424 332.46666667 1086.44533757 332.46666667 1087.37867091 332.46666667 1088.31200424 332.46666667 1089.24533757 332.46666667 1090.17867091 332.46666667 1091.11200424 332.46666667 1092.04533757 332.46666667 1092.97867091 332.46666667 1093.91200424 332.46666667 1094.84533757 332.46666667 1095.77867091 332.46666667 1096.66666667 332.46666667" stroke="#EAA228" stroke-width="1" fill="none"/><g><text x="20" y="470.6666666666667" stroke="none" text-anchor="start" fill="#c5b47f" font-size="12pt">I(Vxa1)</text></g><rect x="70" y="490.6666666666667" width="1120" height="155.33333333333334" stroke="#EFEFEF" stroke-width="1" fill="#333333"/><g><text x="70" y="663" stroke="none" text-anchor="middle" fill="#EFEFEF" font-size="12pt">-200ms</text></g><polyline points="163.33333333333331 490.6666666666667 163.33333333333331 646" stroke="#EFEFEF" stroke-width="1" stroke-dasharray="2,8" fill="none"/><g><text x="163.33333333333331" y="663" stroke="none" text-anchor="middle" fill="#EFEFEF" font-size="12pt">0s</text></g><polyline points="256.66666666666663 490.6666666666667 256.66666666666663 646" stroke="#EFEFEF" stroke-width="1" stroke-dasharray="2,8" fill="none"/><g><text x="256.66666666666663" y="663" stroke="none" text-anchor="middle" fill="#EFEFEF" font-size="12pt">200ms</text></g><polyline points="350 490.6666666666667 350 646" stroke="#EFEFEF" stroke-width="1" stroke-dasharray="2,8" fill="none"/><g><text x="350" y="663" stroke="none" text-anchor="middle" fill="#EFEFEF" font-size="12pt">400ms</text></g><polyline points="443.3333333333333 490.6666666666667 443.3333333333333 646" stroke="#EFEFEF" stroke-width="1" stroke-dasharray="2,8" fill="none"/><g><text x="443.3333333333333" y="663" stroke="none" text-anchor="middle" fill="#EFEFEF" font-size="12pt">600ms</text></g><polyline points="536.6666666666666 490.6666666666667 536.6666666666666 646" stroke="#EFEFEF" stroke-width="1" stroke-dasharray="2,8" fill="none"/><g><text x="536.6666666666666" y="663" stroke="none" text-anchor="middle" fill="#EFEFEF" font-size="12pt">800ms</text></g><polyline points="630 490.6666666666667 630 646" stroke="#EFEFEF" stroke-width="1" stroke-dasharray="2,8" fill="none"/><g><text x="630" y="663" stroke="none" text-anchor="middle" fill="#EFEFEF" font-size="12pt">1s</text></g><polyline points="723.3333333333333 490.6666666666667 723.3333333333333 646" stroke="#EFEFEF" stroke-width="1" stroke-dasharray="2,8" fill="none"/><g><text x="723.3333333333333" y="663" stroke="none" text-anchor="middle" fill="#EFEFEF" font-size="12pt">1.2s</text></g><polyline points="816.6666666666666 490.6666666666667 816.6666666666666 646" stroke="#EFEFEF" stroke-width="1" stroke-dasharray="2,8" fill="none"/><g><text x="816.6666666666666" y="663" stroke="none" text-anchor="middle" fill="#EFEFEF" font-size="12pt">1.4s</text></g><polyline points="910 490.6666666666667 910 646" stroke="#EFEFEF" stroke-width="1" stroke-dasharray="2,8" fill="none"/><g><text x="910" y="663" stroke="none" text-anchor="middle" fill="#EFEFEF" font-size="12pt">1.6s</text></g><polyline points="1003.3333333333333 490.6666666666667 1003.3333333333333 646" stroke="#EFEFEF" stroke-width="1" stroke-dasharray="2,8" fill="none"/><g><text x="1003.3333333333333" y="663" stroke="none" text-anchor="middle" fill="#EFEFEF" font-size="12pt">1.8s</text></g><polyline points="1096.6666666666665 490.6666666666667 1096.6666666666665 646" stroke="#EFEFEF" stroke-width="1" stroke-dasharray="2,8" fill="none"/><g><text x="1096.6666666666665" y="663" stroke="none" text-anchor="middle" fill="#EFEFEF" font-size="12pt">2s</text></g><polyline points="1190 490.6666666666667 1190 646" stroke="#EFEFEF" stroke-width="1" stroke-dasharray="2,8" fill="none"/><g><text x="1190" y="663" stroke="none" text-anchor="middle" fill="#EFEFEF" font-size="12pt">2.2s</text></g><g><text x="65" y="490.6666666666667" stroke="none" text-anchor="end" fill="#EFEFEF" font-size="12pt">-7.627mA</text></g><polyline points="70 568.3333333333334 1190 568.3333333333334" stroke="#EFEFEF" stroke-width="1" stroke-dasharray="2,8" fill="none"/><g><text x="65" y="568.3333333333334" stroke="none" text-anchor="end" fill="#EFEFEF" font-size="12pt">-7.627mA</text></g><polyline points="70 646 1190 646" stroke="#EFEFEF" stroke-width="1" stroke-dasharray="2,8" fill="none"/><g><text x="65" y="646" stroke="none" text-anchor="end" fill="#EFEFEF" font-size="12pt">-7.627mA</text></g><polyline points="163.33333333 601.94332875 163.3333338 601.65015586 163.33333427 601.33219261 163.3333352 600.53351204 163.33333707 598.36489489 163.3333408 597.00681457 163.33334827 611.90474012 163.3333632 589.81330024 163.33339307 575.49417559 163.3334528 564.37192891 163.33357227 628.16829087 163.3338112 534.20637817 163.33428907 622.2304956 163.3352448 596.72010873 163.33715627 608.42331199 163.3409792 577.50435004 163.34862507 572.08819638 163.3639168 596.69747405 163.39450026 584.56097849 163.4556672 611.69024965 163.57800106 592.51760462 163.82266879 604.09796764 164.31200424 590.59473535 165.24533757 603.11170896 166.17867091 590.48802903 167.11200424 598.70118145 168.04533757 595.48490234 168.97867091 601.96815279 169.91200424 594.53751332 170.84533757 595.01496344 171.77867091 596.03999073 172.71200424 588.8777338 173.64533757 595.74897351 174.57867091 587.91417716 175.51200424 598.41339776 176.44533757 583.64265752 177.37867091 613.10329989 178.31200424 584.77331327 179.24533757 595.40194223 180.17867091 590.91916564 181.11200424 598.34226022 182.04533757 591.97006113 182.97867091 598.52980465 183.91200424 581.88469799 184.84533757 592.07676744 185.77867091 580.44901308 186.71200424 598.22693118 187.64533757 578.16614473 188.57867091 607.54055979 189.51200424 589.957731 190.44533757 606.57696946 191.37867091 580.91032925 192.31200424 599.10641618 193.24533757 592.02934241 194.17867091 601.91638271 195.11200424 578.30518629 196.04533757 592.11341405 196.97867091 586.71989507 197.91200424 609.46666259 198.84533757 585.91798097 199.77867091 606.08547373 200.71200424 585.91043608 201.64533757 608.39636596 202.57867091 581.48374094 203.51200424 603.14188853 204.44533757 598.30884713 205.37867091 596.37088807 206.31200424 580.22051068 207.24533757 599.36944319 208.17867091 584.82397183 209.11200424 598.40693071 210.04533757 578.8764423 210.97867091 611.66973698 211.91200424 592.51221542 212.84533757 610.36127106 213.77867091 583.81942353 214.71200424 606.165234 215.64533757 591.07545267 216.57867091 602.50811771 217.51200424 590.62814843 218.44533757 606.22667097 219.37867091 578.61129328 220.31200424 596.44738114 221.24533757 585.04061797 222.17867091 603.41781596 223.11200424 586.25534537 224.04533757 607.88115771 224.97867091 589.81761161 225.91200424 605.4538586 226.84533757 597.24393971 227.77867091 603.78967128 228.71200424 583.66852571 229.64533757 599.46968245 230.57867091 582.92158154 231.51200424 605.02272199 232.44533757 591.49581086 233.37867091 602.7387758 234.31200424 583.9433753 235.24533757 591.33090111 236.17867091 588.15126861 237.11200424 602.15243001 238.04533757 596.38274433 238.97867091 606.83888495 239.91200424 593.15353112 240.84533757 594.29280961 241.77867091 584.35942213 242.71200424 604.51936999 243.64533757 589.69365983 244.57867091 605.10359378 245.51200424 580.04374467 246.44533757 605.97445605 247.37867091 582.37188236 248.31200424 595.64981209 249.24533757 594.81128507 250.17867091 601.46800064 251.11200424 595.47843529 252.04533757 602.36368695 252.97867091 579.84326614 253.91200424 599.39207786 254.84533757 584.20097942 255.77867091 604.85996792 256.71200424 586.97530983 257.64533757 605.99816857 258.57867091 576.4340534 259.51200424 605.45493644 260.44533757 585.32516813 261.37867091 604.3533824 262.31200424 589.2075533 263.24533757 610.55848237 264.17867091 588.94132645 265.11200424 594.22167207 266.04533757 573.08951115 266.97867091 606.30966477 267.91200424 583.9563094 268.84533757 606.78499288 269.77867091 579.30003402 270.71200424 610.37097163 271.64533757 583.24816752 272.57867091 612.81659405 273.51200424 575.06627251 274.44533757 603.37042461 275.37867091 582.41607386 276.31200424 610.54450411 277.24533757 588.24938587 278.17867091 607.84235541 279.11200424 578.29979708 280.04533757 608.5688206 280.97867091 573.26843285 281.91200424 604.6390104 282.84533757 586.91606222 283.77867091 619.06918641 284.71200424 591.08084187 285.64533757 618.22304713 286.57867091 579.73655983 287.51200424 602.09099304 288.44533757 582.01407266 289.37867091 613.08713227 290.31200424 585.46097617 291.24533757 616.95873902 292.17867091 577.52375118 293.11200424 613.84701054 294.04533757 579.91763721 294.97867091 602.45099211 295.91200424 572.86316443 296.84533757 605.41397846 297.77867091 581.3554778 298.71200424 609.9107333 299.64533757 572.26819591 300.57867091 607.98139697 301.51200424 575.17405666 302.44533757 614.60796666 303.37867091 578.09931856 304.31200424 609.77815879 305.24533757 572.70472173 306.17867091 615.05095953 307.11200424 580.23128909 308.04533757 621.76483438 308.97867091 574.83345874 309.91200424 612.65922918 310.84533757 570.14377027 311.77867091 608.32522842 312.71200424 567.11392406 313.64533757 613.51503535 314.57867091 579.99847532 315.51200424 620.70854969 316.44533757 573.61334213 317.37867091 618.32328639 318.31200424 580.05775661 319.24533757 606.89924408 320.17867091 585.74983769 321.11200424 602.73338659 322.04533757 580.56434212 322.97867091 603.61829448 323.91200424 575.416571 324.84533757 613.72521445 325.77867091 580.11488221 326.71200424 612.18929028 327.64533757 577.41923424 328.57867091 609.8568749 329.51200424 587.91090995 330.44533757 612.7141991 331.37867091 582.51523528 332.31200424 619.4992115 333.24533757 579.51991369 334.17867091 611.40893302 335.11200424 582.42038523 336.04533757 610.7751622 336.97867091 574.54459721 337.91200424 610.2793551 338.84533757 571.97825654 339.77867091 606.10703056 340.71200424 577.53237392 341.64533757 601.21901925 342.57867091 582.07763162 343.51200424 609.27484048 344.44533757 591.01832706 345.37867091 612.83060599 346.31200424 578.30303061 347.24533757 615.4034137 348.17867091 575.64938477 349.11200424 609.11959762 350.04533757 577.79863445 350.97867091 607.63217632 351.91200424 576.24543114 352.84533757 599.74022068 353.77867091 566.40258234 354.71200424 614.79443324 355.64533757 583.54241825 356.57867091 613.24557497 357.51200424 581.9914043 358.44533757 606.3883472 359.37867091 580.49859379 360.31200424 610.79779687 361.24533757 572.1302322 362.17867091 603.87805429 363.11200424 576.42866419 364.04533757 608.91800757 364.97867091 572.7014882 365.91200424 605.92056398 366.84533757 571.26041409 367.77867091 614.36329663 368.71200424 580.30458232 369.64533757 612.80689347 370.57867091 585.86843395 371.51200424 609.67360816 372.44533757 576.34890392 373.37867091 609.42247109 374.31200424 573.02484066 375.24533757 608.15708514 376.17867091 582.88493492 377.11200424 614.49802682 378.04533757 567.26916692 378.97867091 608.04822314 379.91200424 576.51165799 380.84533757 609.25109429 381.77867091 586.55178547 382.71200424 611.01120949 383.64533757 582.81379738 384.57867091 605.94427649 385.51200424 580.92649687 386.44533757 597.90465656 387.37867091 580.6311683 388.31200424 608.02451063 389.24533757 586.3728301 390.17867091 611.45743588 391.11200424 583.68145981 392.04533757 607.28726703 392.97867091 579.72362573 393.91200424 604.76511786 394.84533757 585.0621748 395.77867091 604.4493103 396.71200424 585.7552269 397.64533757 617.20448689 398.57867091 574.25789137 399.51200424 616.63646441 400.44533757 589.10519204 401.37867091 606.96822594 402.31200424 590.461083 403.24533757 602.8842844 404.17867091 579.23105216 405.11200424 602.77111104 406.04533757 593.72263145 406.97867091 609.25321629 407.91200424 589.52336087 408.84533757 594.16239079 409.77867091 576.3456704 410.71200424 601.66844548 411.64533757 587.8343832 412.57867091 604.86643497 413.51200424 583.56074156 414.44533757 604.22080789 415.37867091 585.46528753 416.31200424 609.30171915 417.24533757 580.30566016 418.17867091 595.13783737 419.11200424 583.71810642 420.04533757 601.80320935 420.97867091 579.42183011 421.91200424 594.28637625 422.84533757 578.21356976 423.77867091 601.26428859 424.71200424 586.1497169 425.64533757 602.09314872 426.57867091 587.02600206 427.51200424 600.92153499 428.44533757 593.45751612 429.37867091 606.64379564 430.31200424 584.11367426 431.24533757 600.67150944 432.17867091 590.01377876 433.11200424 598.62681038 434.04533757 579.92733778 434.97867091 601.28042253 435.91200424 582.62517512 436.84533757 597.5058552 437.77867091 583.68469333 438.71200424 615.68254098 439.64533757 588.7376144 440.57867091 599.59040071 441.51200424 575.50603185 442.44533757 617.25514544 443.37867091 583.9433753 444.31200424 611.98450039 445.24533757 574.65130352 446.17867091 604.83517756 447.11200424 582.23607433 448.04533757 595.77915308 448.97867091 570.7624513 449.91200424 613.39862847 450.84533757 584.20744647 451.77867091 599.13016237 452.71200424 578.30410845 453.64533757 612.77994743 454.57867091 583.97894407 455.51200424 613.48377795 456.44533757 577.94087585 457.37867091 609.38798016 458.31200424 584.48014038 459.24533757 609.89025431 460.17867091 584.22038057 461.11200424 604.5247592 462.04533757 572.60771599 462.97867091 604.29841248 463.91200424 578.9518912 464.84533757 610.68462351 465.77867091 586.46552447 466.71200424 610.75899458 467.64533757 588.69773426 468.57867091 606.2169704 469.51200424 581.06338275 470.44533757 608.17756413 471.37867091 586.04408843 472.31200424 601.37207274 473.24533757 570.96939688 474.17867091 610.14031354 475.11200424 583.53487336 476.04533757 606.77098094 476.97867091 573.99813156 477.91200424 599.32205185 478.84533757 583.86792639 479.77867091 607.23121927 480.71200424 576.87812411 481.64533757 610.61779734 482.57867091 585.78971783 483.51200424 605.01625494 484.44533757 580.89631731 485.37867091 597.88633326 486.31200424 577.33085123 487.24533757 608.71864057 488.17867091 588.55438134 489.11200424 599.93103231 490.04533757 569.6177836 490.97867091 608.47828191 491.91200424 579.96075087 492.84533757 606.37002389 493.77867091 584.07594981 494.71200424 600.83422982 495.64533757 573.04208613 496.57867091 611.80881222 497.51200424 575.98351565 498.44533757 605.74056444 499.37867091 588.85833265 500.31200424 608.17864197 501.24533757 583.52840631 502.17867091 610.19097209 503.11200424 583.56828645 504.04533757 605.54655297 504.97867091 585.03846229 505.91200424 614.93024128 506.84533757 590.47509494 507.77867091 608.43193473 508.71200424 586.37929714 509.64533757 610.67815646 510.57867091 576.86303433 511.51200424 611.36258583 512.44533757 589.47378016 513.37867091 607.27972214 514.31200424 575.88650991 515.24533757 600.99809542 516.17867091 588.61797399 517.11200424 612.81767189 518.04533757 588.02731684 518.97867091 606.53708933 519.91200424 587.76216782 520.84533757 614.29108125 521.77867091 589.70551609 522.71200424 608.03528905 523.64533757 574.06603557 524.57867091 598.5675291 525.51200424 591.58203818 526.44533757 605.52284045 527.37867091 589.52228303 528.31200424 610.63073144 529.24533757 579.40354048 530.17867091 601.61566493 531.11200424 587.27606129 532.04533757 611.80126733 532.97867091 582.89355766 533.91200424 610.67492294 534.84533757 589.03725434 535.77867091 604.02140721 536.71200424 577.69724999 537.64533757 601.86787985 538.57867091 590.57425636 539.51200424 605.91301909 540.44533757 582.347092 541.37867091 604.06559871 542.31200424 572.35442323 543.24533757 607.97816345 544.17867091 586.39223124 545.11200424 603.50619896 546.04533757 582.24254138 546.97867091 607.70008033 547.91200424 585.50516767 548.84533757 609.36642333 549.77867091 583.29559254 550.71200424 607.52223648 551.64533757 587.76755703 552.57867091 615.00569018 553.51200424 577.6800382 554.44533757 613.46003175 555.37867091 576.35217113 556.31200424 606.04236007 557.24533757 574.48962729 558.17867091 605.36978696 559.11200424 585.09343221 560.04533757 616.98780706 560.97867091 585.65067627 561.91200424 614.44844611 562.84533757 583.14469473 563.77867091 611.82497984 564.71200424 580.7066172 565.64533757 606.41317123 566.57867091 579.05320831 567.51200424 619.72986958 568.44533757 577.2122213 569.37867091 608.64965871 570.31200424 579.58566202 571.24533757 610.28582215 572.17867091 585.20663925 573.11200424 613.81898666 574.04533757 579.5123688 574.97867091 599.14094079 575.91200424 577.0128543 576.84533757 609.64881781 577.77867091 581.80385988 578.71200424 612.17958971 579.64533757 580.27228075 580.57867091 604.22511926 581.51200424 577.94949859 582.44533757 605.29218237 583.37867091 588.47246538 584.31200424 604.51290295 585.24533757 580.09116969 586.17867091 608.12690558 587.11200424 577.36099711 588.04533757 605.60906778 588.97867091 580.05991229 589.91200424 609.94630207 590.84533757 593.73556555 591.77867091 608.66043713 592.71200424 585.65283196 593.64533757 605.07984759 594.57867091 584.06409355 595.51200424 618.60140319 596.44533757 587.79881443 597.37867091 608.9633106 598.31200424 578.29117435 599.24533757 618.04735896 600.17867091 575.54914551 601.11200424 602.07159189 602.04533757 585.33055734 602.97867091 600.46560802 603.91200424 579.59755196 604.84533757 611.60078881 605.77867091 579.99847532 606.71200424 606.6869093 607.64533757 574.64483647 608.57867091 613.78557358 609.51200424 573.81813202 610.44533757 610.71588092 611.37867091 569.38281415 612.31200424 598.20429651 613.24533757 575.64615125 614.17867091 613.39323926 615.11200424 588.73872592 616.04533757 606.82271733 616.97867091 580.85643718 617.91200424 602.86703894 618.84533757 581.62062682 619.77867091 615.07036067 620.71200424 587.01091228 621.64533757 612.30785285 622.57867091 579.96721792 623.51200424 604.45038814 624.44533757 578.39249145 625.37867091 602.34967501 626.31200424 578.56925746 627.24533757 598.64405585 628.17867091 577.17560837 629.11200424 600.91075657 630.04533757 591.98191739 630.97867091 612.60210358 631.91200424 582.60577397 632.84533757 604.35553808 633.77867091 594.49544382 634.71200424 600.24357267 635.64533757 586.69833824 636.57867091 612.56761265 637.51200424 584.67741906 638.44533757 610.85818968 639.37867091 581.97523668 640.31200424 596.37304376 641.24533757 584.75930133 642.17867091 604.3663165 643.11200424 579.29895617 644.04533757 599.99998048 644.97867091 576.41680794 645.91200424 605.90547419 646.84533757 579.97799633 647.77867091 604.51290295 648.71200424 590.18087788 649.64533757 603.55039046 650.57867091 583.52517279 651.51200424 611.38953187 652.44533757 583.16625156 653.37867091 597.53280124 654.31200424 590.07737141 655.24533757 601.31818067 656.17867091 584.7506786 657.11200424 607.74103831 658.04533757 589.9965333 658.97867091 607.59445186 659.91200424 576.12040152 660.84533757 615.62868258 661.77867091 584.32708688 662.71200424 606.88846566 663.64533757 580.24745671 664.57867091 609.08726237 665.51200424 580.54278529 666.44533757 607.10403397 667.37867091 579.96398439 668.31200424 598.91998328 669.24533757 573.0259185 670.17867091 604.64224393 671.11200424 581.16685553 672.04533757 604.18416128 672.97867091 585.768161 673.91200424 610.25779827 674.84533757 592.85820255 675.77867091 608.96438844 676.71200424 580.52015062 677.64533757 601.38611837 678.57867091 581.72305544 679.51200424 611.76246504 680.44533757 573.61549782 681.37867091 601.95734069 682.31200424 585.13331234 683.24533757 598.85531279 684.17867091 587.8343832 685.11200424 609.97540379 686.04533757 588.87234459 686.97867091 607.09002203 687.91200424 577.66387058 688.84533757 594.63556322 689.77867091 583.27834708 690.71200424 605.54874233 691.64533757 583.82265705 692.57867091 600.76524797 693.51200424 586.31678234 694.44533757 598.35950568 695.37867091 587.83114968 696.31200424 607.22259654 697.24533757 580.09224754 698.17867091 609.47097396 699.11200424 576.39636263 700.04533757 607.01026176 700.97867091 580.06526781 701.91200424 604.74140535 702.84533757 586.32756075 703.77867091 607.93181626 704.71200424 586.87187072 705.64533757 602.19766567 706.57867091 580.8726048 707.51200424 601.72237124 708.44533757 582.69954618 709.37867091 600.02803805 710.31200424 578.86569756 711.24533757 606.53924501 712.17867091 582.55080405 713.11200424 595.74466215 714.04533757 576.01153953 714.97867091 598.3444159 715.91200424 579.97799633 716.84533757 600.94201398 717.77867091 589.29593631 718.71200424 609.38798016 719.64533757 589.03725434 720.57867091 599.01052197 721.51200424 590.36084373 722.44533757 602.34536364 723.37867091 588.29788874 724.31200424 601.56716206 725.24533757 595.19061792 726.17867091 609.84929633 727.11200424 583.57798702 728.04533757 600.82884062 728.97867091 572.44068424 729.91200424 598.60094219 730.84533757 592.02610889 731.77867091 607.93397194 732.71200424 589.03833218 733.64533757 600.57339218 734.57867091 588.79366216 735.51200424 604.38571765 736.44533757 586.68324845 737.37867091 602.81099118 738.31200424 581.28865163 739.24533757 610.49168988 740.17867091 574.9057078 741.11200424 611.20737665 742.04533757 583.05415604 742.97867091 598.48776883 743.91200424 579.52206937 744.84533757 616.33682446 745.77867091 594.41460571 746.71200424 614.82784633 747.64533757 581.58829157 748.57867091 610.40222903 749.51200424 592.43676651 750.44533757 606.69768771 751.37867091 583.7849326 752.31200424 611.83144689 753.24533757 582.95715031 754.17867091 608.09564817 755.11200424 572.97741563 756.04533757 607.81975442 756.97867091 579.70853595 757.91200424 597.02082651 758.84533757 585.99450772 759.77867091 609.24247155 760.71200424 584.6105592 761.64533757 603.0373379 762.57867091 590.66802857 763.51200424 613.44928702 764.44533757 581.60338135 765.37867091 605.12619477 766.31200424 584.14924303 767.24533757 604.75002808 768.17867091 589.28300221 769.11200424 610.59516267 770.04533757 583.92612984 770.97867091 599.56237683 771.91200424 586.58728688 772.84533757 601.93901739 773.77867091 589.04803276 774.71200424 608.0008318 775.64533757 576.15058108 776.57867091 597.96717137 777.51200424 580.21619931 778.44533757 607.51792511 779.37867091 584.71618767 780.31200424 600.53890125 781.24533757 581.74888996 782.17867091 614.22964428 783.11200424 587.96480203 784.04533757 603.91901227 784.97867091 570.81526554 785.91200424 611.43911258 786.84533757 579.23967489 787.77867091 604.67242349 788.71200424 587.86567429 789.64533757 594.33487912 790.57867091 579.25372051 791.51200424 604.60128595 792.44533757 586.84384684 793.37867091 603.79937186 794.31200424 583.47990345 795.24533757 602.95111058 796.17867091 580.8025451 797.11200424 605.55194217 798.04533757 589.53952849 798.97867091 600.49578759 799.91200424 591.15629078 800.84533757 612.27875113 801.77867091 587.62635979 802.71200424 602.31087271 803.64533757 581.54948928 804.57867091 607.48558987 805.51200424 582.69092345 806.44533757 608.4728927 807.37867091 589.17094037 808.31200424 604.76511786 809.24533757 579.27739934 810.17867091 606.96930378 811.11200424 582.40960681 812.04533757 607.63540984 812.97867091 587.0270799 813.91200424 596.84190482 814.84533757 577.65312585 815.77867091 602.31949544 816.71200424 584.39930227 817.64533757 602.21602266 818.57867091 581.02350261 819.51200424 596.32349673 820.44533757 574.46055925 821.37867091 612.41459284 822.31200424 591.67796608 823.24533757 608.96438844 824.17867091 591.11641064 825.11200424 607.29588976 826.04533757 578.20386919 826.97867091 606.71062181 827.91200424 582.78361782 828.84533757 607.61816438 829.77867091 578.50674265 830.71200424 610.01636177 831.64533757 582.07116457 832.57867091 612.15695503 833.51200424 582.51846881 834.44533757 603.74440194 835.37867091 579.98015202 836.31200424 610.7051025 837.24533757 576.22602999 838.17867091 605.36116422 839.11200424 586.57007509 840.04533757 610.85600031 840.97867091 569.80748371 841.91200424 617.14412777 842.84533757 586.17127373 843.77867091 607.25708747 844.71200424 583.1210159 845.64533757 604.11841295 846.57867091 588.57159312 847.51200424 602.25374711 848.44533757 587.20815728 849.37867091 603.81230595 850.31200424 590.99892592 851.24533757 601.80859856 852.17867091 578.55955689 853.11200424 613.09683284 854.04533757 575.9253122 854.97867091 609.89244367 855.91200424 582.88385708 856.84533757 610.21576245 857.77867091 582.02589523 858.71200424 615.11455218 859.64533757 580.32509499 860.57867091 612.32940968 861.51200424 576.16028166 862.44533757 606.62116097 863.37867091 578.00015714 864.31200424 611.51348364 865.24533757 584.86816333 866.17867091 606.75700268 867.11200424 571.35095278 868.04533757 598.29160167 868.97867091 589.00599694 869.91200424 607.437087 870.84533757 584.0834947 871.77867091 613.89335773 872.71200424 579.74518256 873.64533757 612.24318236 874.57867091 588.41641763 875.51200424 601.47015632 876.44533757 588.57809385 877.37867091 600.09590838 878.31200424 589.88767131 879.24533757 615.70089797 880.17867091 571.66032698 881.11200424 617.45346828 882.04533757 581.33607665 882.97867091 603.2787744 883.91200424 573.60256372 884.84533757 613.54521492 885.77867091 583.94014178 886.71200424 610.4507319 887.64533757 586.18420783 888.57867091 607.30774602 889.51200424 578.45177274 890.44533757 604.6390104 891.37867091 584.63103819 892.31200424 605.47864895 893.24533757 587.98096965 894.17867091 598.1859732 895.11200424 577.00638725 896.04533757 600.98728332 896.97867091 575.85309682 897.91200424 600.5453683 898.84533757 577.64446943 899.77867091 605.25445791 900.71200424 575.46291819 901.64533757 614.93563048 902.57867091 573.14555891 903.51200424 604.99900947 904.44533757 582.32553517 905.37867091 610.03576291 906.31200424 580.23128909 907.24533757 607.91676016 908.17867091 578.82793943 909.11200424 616.16544766 910.04533757 583.01858727 910.97867091 600.76632581 911.91200424 574.96818893 912.84533757 611.88318329 913.77867091 582.84505479 914.71200424 603.87158724 915.64533757 583.48529265 916.57867091 612.34126593 917.51200424 584.02205773 918.44533757 608.17109708 919.37867091 576.57848417 920.31200424 605.4388025 921.24533757 575.8940548 922.17867091 597.22669424 923.11200424 573.11430151 924.04533757 604.05050893 924.97867091 578.04219296 925.91200424 597.79040536 926.84533757 594.43619622 927.77867091 613.08605443 928.71200424 578.58865861 929.64533757 603.00069129 930.57867091 584.89510937 931.51200424 612.00066801 932.44533757 578.5649461 933.37867091 598.07711121 934.31200424 588.0133049 935.24533757 609.19289084 936.17867091 583.42493353 937.11200424 614.11000388 938.04533757 576.39848463 938.97867091 611.10713739 939.91200424 581.85020706 940.84533757 614.70820592 941.77867091 574.91106333 942.71200424 602.02740039 943.64533757 579.93707204 944.57867091 607.63864337 945.51200424 572.92140156 946.44533757 614.24796759 947.37867091 584.36588918 948.31200424 611.29040413 949.24533757 581.08062821 950.17867091 613.49347852 951.11200424 585.50408983 952.04533757 610.02067313 952.97867091 575.12232027 953.91200424 605.16715275 954.84533757 575.52219947 955.77867091 618.42352565 956.71200424 576.12686857 957.64533757 606.84858553 958.57867091 574.28379324 959.51200424 618.24675964 960.44533757 581.60445919 961.37867091 602.48009383 962.31200424 590.50746386 963.24533757 608.47612623 964.17867091 579.08446571 965.11200424 612.37040134 966.04533757 586.02687665 966.97867091 602.77218888 967.91200424 581.98062589 968.84533757 601.16297149 969.77867091 589.22264309 970.71200424 609.39983642 971.64533757 585.32516813 972.57867091 607.149337 973.51200424 581.5915251 974.44533757 601.69434736 975.37867091 582.10996687 976.31200424 598.9232168 977.24533757 577.60462298 978.17867091 614.62305644 979.11200424 586.83522411 980.04533757 599.47938303 980.97867091 577.27476979 981.91200424 617.19263063 982.84533757 578.06267195 983.77867091 607.95445093 984.71200424 575.31309822 985.64533757 607.8057088 986.57867091 574.93693153 987.51200424 608.66690418 988.44533757 577.88698378 989.37867091 618.33729833 990.31200424 584.91451051 991.24533757 610.68893488 992.17867091 573.73837175 993.11200424 596.81495878 994.04533757 586.22088812 994.97867091 609.43217166 995.91200424 576.46854433 996.84533757 608.34355172 997.77867091 579.91871505 998.71200424 600.28021928 999.64533757 575.09860775 1000.57867091 610.97671857 1001.51200424 574.14902937 1002.44533757 601.47015632 1003.37867091 576.49980174 1004.31200424 600.44081767 1005.24533757 587.04216968 1006.17867091 598.66561268 1007.11200424 580.71739562 1008.04533757 605.47541543 1008.97867091 577.99584577 1009.91200424 596.84082698 1010.84533757 589.33797213 1011.77867091 608.21528858 1012.71200424 583.36784161 1013.64533757 601.9185384 1014.57867091 589.44791196 1015.51200424 602.76464399 1016.44533757 576.34998176 1017.37867091 611.2009096 1018.31200424 577.49464946 1019.24533757 609.61324904 1020.17867091 581.53871086 1021.11200424 608.2131329 1022.04533757 582.34278064 1022.97867091 606.23744938 1023.91200424 579.40242896 1024.84533757 608.76929912 1025.77867091 585.26157548 1026.71200424 601.66093427 1027.64533757 577.20255441 1028.57867091 603.00608049 1029.51200424 583.35379599 1030.44533757 606.92619012 1031.37867091 592.88730427 1032.31200424 605.11433852 1033.24533757 581.38242384 1034.17867091 603.65817462 1035.11200424 580.70230584 1036.04533757 608.88355033 1036.97867091 585.92229234 1037.91200424 604.69829169 1038.84533757 583.71271721 1039.77867091 598.52764896 1040.71200424 580.20649874 1041.64533757 608.77249897 1042.57867091 584.07271628 1043.51200424 598.07711121 1044.44533757 589.00707478 1045.37867091 604.60883084 1046.31200424 583.36241872 1047.24533757 604.70583658 1048.17867091 574.91001917 1049.11200424 617.73586276 1050.04533757 587.24588173 1050.97867091 600.82776277 1051.91200424 584.32277552 1052.84533757 601.45291086 1053.77867091 585.5579819 1054.71200424 603.99985038 1055.64533757 574.24711295 1056.57867091 604.68104622 1057.51200424 583.45834661 1058.44533757 607.56211662 1059.37867091 589.99761114 1060.31200424 597.38624847 1061.24533757 588.07366402 1062.17867091 603.77673718 1063.11200424 580.91248494 1064.04533757 590.8738963 1064.97867091 583.27188003 1065.91200424 613.41479609 1066.84533757 596.72442009 1067.77867091 607.46511088 1068.71200424 588.19438227 1069.64533757 605.22751188 1070.57867091 588.56300407 1071.51200424 603.65713046 1072.44533757 577.52375118 1073.37867091 606.91110034 1074.31200424 578.54123358 1075.24533757 600.26728518 1076.17867091 576.70462531 1077.11200424 607.92538289 1078.04533757 589.38755284 1078.97867091 607.36594946 1079.91200424 593.39712331 1080.84533757 608.52139557 1081.77867091 590.44491537 1082.71200424 595.24993289 1083.64533757 577.64015807 1084.57867091 601.77845268 1085.51200424 586.16911805 1086.44533757 605.34391876 1087.37867091 585.11498904 1088.31200424 597.97902763 1089.24533757 586.00313045 1090.17867091 599.4136347 1091.11200424 584.74744508 1092.04533757 600.64345187 1092.97867091 582.78580719 1093.91200424 604.08715554 1094.84533757 588.37330396 1095.77867091 609.13145388 1096.66666667 584.95870202" stroke="#c5b47f" stroke-width="1" fill="none"/></g></svg>